<?xml version="1.0" encoding="utf-8"?>
<!-- Generator: Adobe Illustrator 16.0.0, SVG Export Plug-In . SVG Version: 6.00 Build 0)  -->
<!DOCTYPE svg PUBLIC "-//W3C//DTD SVG 1.1//EN" "http://www.w3.org/Graphics/SVG/1.1/DTD/svg11.dtd">
<svg version="1.1" id="Layer_1" xmlns="http://www.w3.org/2000/svg" xmlns:xlink="http://www.w3.org/1999/xlink" x="0px" y="0px"
	 width="260px" height="60px" viewBox="0 0 260 60" enable-background="new 0 0 260 60" xml:space="preserve">
<path fill-rule="evenodd" clip-rule="evenodd" fill="#1E1E1E" d="M225.568,49.898c-6.484-0.293-11.633-3.102-15.492-8.281
	c-1.914-2.57-3.047-5.484-3.535-8.645c-0.121-0.77-0.125-1.551-0.191-2.328c-0.02-0.189-0.066-0.379-0.102-0.566
	c0-0.051,0-0.104,0-0.156c0.035-0.188,0.094-0.377,0.098-0.566c0.051-2.759,0.684-5.386,1.891-7.855
	c2.715-5.566,7.094-9.165,13.063-10.807c1.391-0.383,2.816-0.591,4.27-0.595c0.176-0.001,0.348-0.064,0.523-0.099
	c0.105,0,0.207,0,0.313,0c0.176,0.034,0.348,0.091,0.527,0.1c7.301,0.385,12.809,3.765,16.586,9.986
	c1.41,2.319,2.191,4.873,2.527,7.559c0.07,0.579,0.066,1.167,0.105,1.749c0.012,0.178,0.063,0.353,0.098,0.528
	c0,0.052,0,0.105,0,0.156c-0.035,0.176-0.098,0.348-0.102,0.523c-0.09,3.82-1.23,7.305-3.363,10.465
	c-0.305,0.453-0.379,0.82-0.191,1.348c0.723,2.047,1.387,4.113,2.074,6.172c0.043,0.121,0.074,0.246,0.133,0.43
	c-0.184-0.051-0.316-0.078-0.445-0.121c-2.191-0.699-4.387-1.395-6.57-2.109c-0.379-0.125-0.676-0.105-1.02,0.113
	c-1.891,1.215-3.934,2.078-6.133,2.523c-1.191,0.242-2.414,0.316-3.625,0.469c-0.227,0.027-0.453,0.074-0.68,0.109
	c-0.078,0-0.156,0-0.234,0C225.916,49.965,225.744,49.906,225.568,49.898z M233.131,19.104c-0.566-0.014-0.984,0.209-1.207,0.744
	c-0.52,1.221-1.035,2.441-1.551,3.663c-0.152,0.359-0.297,0.723-0.449,1.082c-0.18,0.428-0.172,0.846,0.105,1.222
	c0.316,0.427,0.664,0.833,1,1.244c0.176,0.211,0.363,0.408,0.535,0.622c0.254,0.32,0.273,0.663,0.063,1.016
	c-1.859,3.089-4.359,5.452-7.742,6.808c-0.777,0.309-1.184,0.203-1.703-0.449c-0.43-0.539-0.832-1.102-1.242-1.652
	c-0.512-0.684-0.988-0.848-1.762-0.488c-1.512,0.695-3.004,1.43-4.508,2.145c-0.422,0.199-0.57,0.543-0.559,0.98
	c0.055,2.004,0.844,3.559,2.715,4.469c0.84,0.406,1.711,0.734,2.645,0.742c0.68,0.008,1.379-0.078,2.039-0.246
	c3.309-0.859,6.379-2.215,8.992-4.488c1.898-1.652,3.516-3.539,4.965-5.588c0.938-1.326,1.754-2.707,2.18-4.287
	c0.539-1.993,0.344-3.899-0.797-5.646c-0.574-0.881-1.258-1.676-2.398-1.844c-0.293-0.043-0.594-0.046-0.891-0.067
	c0,0.008,0,0.015,0,0.021C233.416,19.104,233.271,19.107,233.131,19.104z"/>
<g>
	<path fill-rule="evenodd" clip-rule="evenodd" fill="#009245" d="M177.568,49.898c-6.484-0.293-11.633-3.102-15.492-8.281
		c-1.914-2.57-3.047-5.488-3.535-8.648c-0.117-0.766-0.125-1.551-0.191-2.324c-0.016-0.191-0.066-0.379-0.102-0.566
		c0-0.053,0-0.105,0-0.157c0.035-0.188,0.098-0.377,0.102-0.566c0.047-2.759,0.68-5.386,1.887-7.855
		c2.719-5.566,7.094-9.165,13.063-10.807c1.391-0.382,2.82-0.591,4.27-0.595c0.176-0.001,0.352-0.064,0.523-0.099
		c0.105,0,0.211,0,0.313,0c0.176,0.034,0.352,0.091,0.527,0.1c7.301,0.385,12.809,3.765,16.59,9.986
		c1.406,2.319,2.188,4.873,2.523,7.559c0.074,0.579,0.066,1.167,0.105,1.749c0.012,0.178,0.066,0.353,0.098,0.528
		c0,0.052,0,0.104,0,0.157c-0.035,0.174-0.098,0.348-0.102,0.523c-0.09,3.82-1.23,7.305-3.363,10.465
		c-0.305,0.453-0.379,0.82-0.191,1.348c0.723,2.047,1.391,4.113,2.078,6.172c0.039,0.121,0.074,0.246,0.129,0.43
		c-0.184-0.051-0.316-0.078-0.445-0.121c-2.191-0.699-4.387-1.395-6.57-2.113c-0.379-0.121-0.676-0.102-1.016,0.117
		c-1.891,1.215-3.938,2.078-6.137,2.523c-1.191,0.242-2.414,0.316-3.621,0.469c-0.23,0.027-0.457,0.07-0.684,0.109
		c-0.078,0-0.156,0-0.234,0C177.92,49.965,177.744,49.906,177.568,49.898z M185.131,19.103c-0.566-0.014-0.98,0.209-1.207,0.744
		c-0.516,1.221-1.035,2.441-1.551,3.663c-0.152,0.359-0.293,0.723-0.445,1.082c-0.184,0.428-0.176,0.846,0.102,1.222
		c0.32,0.427,0.664,0.833,1.004,1.244c0.172,0.211,0.363,0.408,0.531,0.622c0.254,0.32,0.273,0.663,0.063,1.016
		c-1.859,3.09-4.355,5.453-7.738,6.809c-0.777,0.309-1.188,0.203-1.707-0.449c-0.43-0.539-0.832-1.102-1.242-1.652
		c-0.512-0.688-0.988-0.848-1.758-0.492c-1.512,0.699-3.008,1.434-4.512,2.148c-0.422,0.199-0.57,0.543-0.559,0.98
		c0.059,2.004,0.844,3.559,2.715,4.469c0.84,0.406,1.711,0.734,2.645,0.742c0.68,0.004,1.379-0.078,2.039-0.25
		c3.313-0.859,6.379-2.211,8.992-4.484c1.898-1.652,3.516-3.539,4.965-5.59c0.938-1.325,1.754-2.706,2.18-4.286
		c0.539-1.993,0.348-3.899-0.797-5.646c-0.574-0.881-1.258-1.676-2.395-1.844c-0.297-0.043-0.598-0.046-0.895-0.067
		c0,0.008,0,0.015,0,0.021C185.416,19.104,185.275,19.106,185.131,19.103z"/>
</g>
<g>
	<path fill-rule="evenodd" clip-rule="evenodd" fill="#939393" d="M130.931,10.099c7.302,0.385,12.81,3.765,16.587,9.985
		c1.41,2.319,2.191,4.873,2.527,7.56c0.07,0.578,0.066,1.166,0.105,1.749c0.012,0.178,0.063,0.352,0.098,0.528
		c0,0.052,0,0.103,0,0.157c-0.035,0.16-0.098,0.32-0.102,0.484c-0.082,3.859-1.238,7.379-3.406,10.566
		c-0.289,0.422-0.328,0.77-0.16,1.246c0.715,2.059,1.395,4.137,2.086,6.207c0.039,0.121,0.074,0.246,0.137,0.438
		c-0.188-0.051-0.316-0.082-0.445-0.125c-2.227-0.711-4.457-1.418-6.68-2.141c-0.297-0.098-0.535-0.09-0.805,0.082
		c-2.332,1.496-4.875,2.449-7.605,2.859c-2.171,0.328-4.349,0.32-6.515-0.074c-3.988-0.727-7.451-2.5-10.359-5.316
		c-2.9-2.805-4.797-6.195-5.623-10.148c-0.236-1.125-0.283-2.289-0.418-3.434c-0.027-0.217-0.068-0.43-0.104-0.645
		c0-0.055,0-0.105,0-0.157c0.033-0.189,0.096-0.378,0.098-0.567c0.051-2.758,0.684-5.385,1.889-7.854
		c2.719-5.566,7.094-9.165,13.063-10.807c1.391-0.383,2.818-0.591,4.27-0.595c0.176-0.001,0.35-0.064,0.525-0.099
		c0.104,0,0.208,0,0.313,0C130.58,10.033,130.755,10.09,130.931,10.099z M136.986,19.107c-0.449,0.02-0.82,0.197-1,0.624
		c-0.711,1.675-1.426,3.349-2.098,5.041c-0.098,0.251-0.055,0.642,0.078,0.884c0.238,0.439,0.582,0.822,0.898,1.218
		c0.203,0.254,0.438,0.481,0.641,0.734c0.332,0.411,0.355,0.704,0.09,1.144c-1.824,2.99-4.243,5.311-7.517,6.674
		c-0.984,0.41-1.363,0.324-2.016-0.512c-0.4-0.512-0.773-1.047-1.166-1.563c-0.473-0.625-0.965-0.789-1.672-0.461
		c-1.535,0.707-3.051,1.453-4.578,2.18c-0.426,0.203-0.566,0.563-0.531,0.992c0.189,2.355,0.73,3.594,3.377,4.738
		c1.318,0.57,2.672,0.555,4.045,0.207c4.309-1.094,8.034-3.172,11.038-6.484c1.551-1.707,2.988-3.508,4.109-5.533
		c0.773-1.403,1.293-2.895,1.238-4.532c-0.066-1.825-0.723-3.391-2.074-4.643c-0.645-0.597-1.43-0.753-2.32-0.71
		C137.377,19.105,137.182,19.099,136.986,19.107z"/>
	<path fill-rule="evenodd" clip-rule="evenodd" fill="#FFFFFF" d="M137.529,19.105c-0.152,0-0.348-0.007-0.543,0.002
		c-0.449,0.02-0.82,0.197-1,0.624c-0.711,1.675-1.426,3.349-2.098,5.041c-0.098,0.251-0.055,0.642,0.078,0.884
		c0.238,0.439,0.582,0.822,0.898,1.218c0.203,0.254,0.438,0.481,0.641,0.734c0.332,0.411,0.355,0.704,0.09,1.144
		c-1.824,2.99-4.243,5.311-7.517,6.674c-0.984,0.41-1.363,0.324-2.016-0.512c-0.4-0.512-0.773-1.047-1.166-1.563
		c-0.473-0.625-0.965-0.789-1.672-0.461c-1.535,0.707-3.051,1.453-4.578,2.18c-0.426,0.203-0.566,0.563-0.531,0.992
		c0.189,2.355,0.73,3.594,3.377,4.738c1.318,0.57,2.672,0.555,4.045,0.207c4.309-1.094,8.034-3.172,11.038-6.484
		c1.551-1.707,2.988-3.508,4.109-5.533c0.773-1.403,1.293-2.895,1.238-4.532c-0.066-1.825-0.723-3.391-2.074-4.643
		C139.205,19.219,138.42,19.063,137.529,19.105z"/>
</g>
<g>
	<path fill-rule="evenodd" clip-rule="evenodd" fill="#39B54A" d="M81.567,49.898c-6.484-0.293-11.631-3.102-15.49-8.281
		c-1.914-2.57-3.049-5.488-3.537-8.648c-0.119-0.766-0.125-1.551-0.191-2.324c-0.016-0.191-0.066-0.379-0.1-0.566
		c0-0.053,0-0.105,0-0.157c0.033-0.188,0.096-0.377,0.098-0.566c0.051-2.759,0.684-5.386,1.889-7.855
		c2.719-5.566,7.094-9.165,13.063-10.807c1.391-0.382,2.818-0.591,4.27-0.595c0.176-0.001,0.35-0.064,0.525-0.099
		c0.104,0,0.209,0,0.313,0c0.176,0.034,0.35,0.091,0.525,0.1c7.303,0.385,12.811,3.765,16.588,9.986
		c1.41,2.319,2.189,4.873,2.527,7.559c0.072,0.579,0.064,1.167,0.105,1.749c0.012,0.178,0.064,0.353,0.098,0.528
		c0,0.052,0,0.104,0,0.157c-0.035,0.174-0.1,0.348-0.104,0.523c-0.088,3.82-1.23,7.305-3.361,10.465
		c-0.305,0.453-0.379,0.82-0.193,1.348c0.723,2.047,1.391,4.113,2.078,6.172c0.039,0.121,0.072,0.246,0.129,0.43
		c-0.184-0.051-0.316-0.078-0.445-0.121c-2.191-0.699-4.385-1.395-6.57-2.113c-0.379-0.121-0.676-0.102-1.018,0.117
		c-1.889,1.215-3.936,2.078-6.135,2.523c-1.189,0.242-2.414,0.316-3.621,0.469c-0.229,0.027-0.455,0.07-0.682,0.109
		c-0.078,0-0.156,0-0.234,0C81.917,49.965,81.743,49.906,81.567,49.898z M89.13,19.103c-0.564-0.014-0.98,0.209-1.207,0.744
		c-0.518,1.221-1.035,2.441-1.551,3.663c-0.15,0.359-0.295,0.723-0.447,1.082c-0.182,0.428-0.174,0.846,0.105,1.222
		c0.318,0.427,0.662,0.833,1,1.244c0.174,0.211,0.363,0.408,0.535,0.622c0.254,0.32,0.271,0.663,0.061,1.016
		c-1.859,3.09-4.355,5.453-7.738,6.809c-0.777,0.309-1.188,0.203-1.705-0.449c-0.43-0.539-0.832-1.102-1.244-1.652
		c-0.512-0.688-0.986-0.848-1.76-0.492c-1.512,0.699-3.004,1.434-4.508,2.148c-0.424,0.199-0.57,0.543-0.559,0.98
		c0.057,2.004,0.842,3.559,2.715,4.469c0.84,0.406,1.711,0.734,2.643,0.742c0.68,0.004,1.381-0.078,2.041-0.25
		c3.309-0.859,6.379-2.211,8.992-4.484c1.896-1.652,3.516-3.539,4.963-5.59c0.938-1.325,1.754-2.706,2.182-4.286
		c0.539-1.993,0.346-3.899-0.797-5.646c-0.574-0.881-1.26-1.676-2.398-1.844c-0.293-0.043-0.594-0.046-0.891-0.067
		c-0.002,0.008-0.002,0.015-0.002,0.021C89.417,19.104,89.272,19.106,89.13,19.103z"/>
</g>
<path fill-rule="evenodd" clip-rule="evenodd" fill="#00FF00" d="M33.567,49.898c-6.484-0.293-11.631-3.102-15.49-8.281
	c-1.914-2.57-3.049-5.488-3.537-8.648c-0.119-0.766-0.125-1.551-0.191-2.324c-0.016-0.191-0.066-0.379-0.1-0.566
	c0-0.053,0-0.105,0-0.157c0.033-0.188,0.096-0.377,0.098-0.566c0.051-2.759,0.684-5.386,1.889-7.855
	c2.719-5.566,7.094-9.165,13.063-10.807c1.391-0.382,2.818-0.591,4.27-0.595c0.176-0.001,0.35-0.064,0.525-0.099
	c0.104,0,0.209,0,0.313,0c0.176,0.034,0.35,0.091,0.525,0.1c7.303,0.385,12.811,3.765,16.588,9.986
	c1.41,2.319,2.189,4.873,2.527,7.559c0.072,0.579,0.064,1.167,0.105,1.749c0.012,0.178,0.064,0.353,0.098,0.528
	c0,0.052,0,0.104,0,0.157c-0.035,0.174-0.1,0.348-0.104,0.523c-0.088,3.82-1.23,7.305-3.361,10.465
	c-0.305,0.453-0.379,0.82-0.193,1.348c0.723,2.047,1.391,4.113,2.078,6.172c0.039,0.121,0.072,0.246,0.129,0.43
	c-0.184-0.051-0.316-0.078-0.445-0.121c-2.191-0.699-4.385-1.395-6.57-2.113c-0.379-0.121-0.676-0.102-1.018,0.117
	c-1.889,1.215-3.936,2.078-6.135,2.523c-1.189,0.242-2.414,0.316-3.621,0.469c-0.229,0.027-0.455,0.07-0.682,0.109
	c-0.078,0-0.156,0-0.234,0C33.917,49.965,33.743,49.906,33.567,49.898z M41.13,19.103c-0.564-0.014-0.98,0.209-1.207,0.744
	c-0.518,1.221-1.035,2.441-1.551,3.663c-0.15,0.359-0.295,0.723-0.447,1.082c-0.182,0.428-0.174,0.846,0.105,1.222
	c0.318,0.427,0.662,0.833,1,1.244c0.174,0.211,0.363,0.408,0.535,0.622c0.254,0.32,0.271,0.663,0.061,1.016
	c-1.859,3.09-4.355,5.453-7.738,6.809c-0.777,0.309-1.188,0.203-1.705-0.449c-0.43-0.539-0.832-1.102-1.244-1.652
	c-0.512-0.688-0.986-0.848-1.76-0.492c-1.512,0.699-3.004,1.434-4.508,2.148c-0.424,0.199-0.57,0.543-0.559,0.98
	c0.057,2.004,0.842,3.559,2.715,4.469c0.84,0.406,1.711,0.734,2.643,0.742c0.68,0.004,1.381-0.078,2.041-0.25
	c3.309-0.859,6.379-2.211,8.992-4.484c1.896-1.652,3.516-3.539,4.963-5.59c0.938-1.325,1.754-2.706,2.182-4.286
	c0.539-1.993,0.346-3.899-0.797-5.646c-0.574-0.881-1.26-1.676-2.398-1.844c-0.293-0.043-0.594-0.046-0.891-0.067
	c-0.002,0.008-0.002,0.015-0.002,0.021C41.417,19.104,41.272,19.106,41.13,19.103z"/>
</svg>
