<?xml version="1.0" encoding="utf-8"?>
<!-- Generator: Adobe Illustrator 15.0.0, SVG Export Plug-In . SVG Version: 6.00 Build 0)  -->
<!DOCTYPE svg PUBLIC "-//W3C//DTD SVG 1.1//EN" "http://www.w3.org/Graphics/SVG/1.1/DTD/svg11.dtd">
<svg version="1.1" id="Precilia__x28_B_x29_" xmlns="http://www.w3.org/2000/svg" xmlns:xlink="http://www.w3.org/1999/xlink"
	 x="0px" y="0px" width="180px" height="88.833px" viewBox="0 0 180 88.833" enable-background="new 0 0 180 88.833"
	 xml:space="preserve">
<g>
	<g>
		<path fill="#5F6469" d="M29.448,11.967c-0.532,25.467,6.124,50.551,4.609,76.025c-0.099,1.704,2.835,0.481,2.91-0.724
			c1.529-25.685-5.119-50.945-4.584-76.6C32.411,9.324,29.477,10.698,29.448,11.967L29.448,11.967z"/>
	</g>
	<g>
		<path fill="#5F6469" d="M0.844,26.563c2.148,1.41,5.06,0.338,7.176-0.574c3.966-1.722,7.637-4.091,11.276-6.405
			c8.93-5.642,17.875-12.141,27.988-15.507c3.616-1.213,7.905-2.078,11.407-0.113c3.918,2.2,5.207,7.505,3.853,11.502
			c-1.632,4.853-6.042,8.633-9.96,11.652c-4.631,3.574-9.748,6.508-14.906,9.245c-4.905,2.596-9.978,4.825-14.943,7.298
			c-1.693,0.836,0.357,3.385,1.923,2.605c8.769-4.346,17.671-8.285,25.872-13.693c7.142-4.72,17.2-12.367,15.475-22.185
			C64.438,1.462,55.907-1.34,48.103,0.569c-9.984,2.445-19.032,8.924-27.556,14.379c-3.843,2.455-7.67,4.956-11.694,7.1
			c-1.539,0.818-5.164,3.095-6.941,1.928C0.12,22.801-0.769,25.5,0.844,26.563L0.844,26.563z"/>
	</g>
	<g>
		<path fill="#5F6469" d="M39.361,54.69c-0.033,6.443-0.603,12.932,0.676,19.291c0.156,0.78,2.797,2.472,2.778,1.289
			c-0.084-6.369-1.313-13.007,0.63-19.224c0.376-1.213,1.163-2.635,2.512-2.887c2.619-0.51,2.708,3.825,2.661,5.416
			c-0.118,3.93-1.551,8.512-3.927,11.662c-0.403,0.546,0.479,1.353,0.836,1.625c3.264,2.492,6.532,3.039,9.942,0.473
			c2.882-2.173,5.971-6.283,6.253-10.019c0.278-3.609-5.738-6.281-6.62-1.937c-0.485,2.379,1.503,6.725,3.291,8.362
			c1.702,1.56,3.64,2.273,5.822,1.267c2.585-1.192,4.466-4.118,6.004-6.374c1.989-2.927,3.649-6.066,5.338-9.16
			c-0.88-0.658-1.759-1.307-2.639-1.957c-2.074,3.828-5.421,12.404,1.713,13.316c6.33,0.819,9.681-8.114,10.194-12.883
			c0.117-1.063-2.624-2.737-2.797-1.542c-0.532,3.639-0.691,8.708,3.093,10.768c3.297,1.796,6.222-0.216,8.338-2.831
			c3.174-3.93,3.903-9.582,4.268-14.444c0.341-4.542,0.203-10.034-2.717-13.788c-0.326-0.423-2.196-1.872-2.478-0.705
			c-1.384,5.718-2.036,11.708-2.144,17.586c-0.095,5.134,0.931,10.063,4.813,13.739c7.627,7.214,10.229-11.209,10.627-15.347
			c-0.93-0.507-1.861-1.024-2.797-1.542c-0.009,5.145-0.81,17.304,7.26,16.879c4.147-0.225,5.72-4.465,7.098-7.666
			c1.79-4.164,3.126-8.498,4.773-12.712c0.412-1.054-1.498-2.483-2.46-2.097c-6.847,2.746-12.487,16.929-2.319,19.12
			c8.251,1.778,9.729-11.823,7.358-17.117c-0.222-0.488-2.56-2.266-2.676-0.996c-0.869,9.827-1.697,22.437,3.853,31.111
			c5.045,7.898,14.05,6.027,20.365,0.938c8.93-7.212,15.245-17.606,20.91-27.414c4.618-8.002,8.619-16.296,12.735-24.554
			c0.535-1.072-2.176-2.869-2.64-1.956c-8.191,16.438-16.142,33.783-28.744,47.378c-4.273,4.618-15.092,13.883-20.403,5.578
			c-2.859-4.479-3.355-10.532-3.625-15.696c-0.245-4.607-0.058-9.253,0.347-13.852c-0.882-0.33-1.775-0.668-2.666-0.998
			c1.826,4.082,0.813,12.961-3.55,15.16c-2.054,1.033-4.063-0.479-4.179-2.606c-0.089-1.664,0.595-3.385,1.282-4.852
			c1.223-2.633,3.438-5.896,6.234-7.016c-0.821-0.695-1.641-1.391-2.456-2.087c-2.338,5.973-3.817,12.83-7.568,18.103
			c-0.762,1.072-2.211,1.665-3.461,1.88c-1.649,0.292-1.967-2.389-2.196-3.536c-0.634-3.091-0.479-6.319-0.476-9.449
			c0.006-1.016-2.674-2.755-2.797-1.542c-0.337,3.479-0.983,6.932-1.999,10.269c-0.473,1.568-1.108,3.093-2.021,4.468
			c-1.44,2.152-2.597,1.288-3.78-0.631c-2.556-4.1-2.174-9.018-1.859-13.665c0.308-4.467,0.902-8.99,1.958-13.345
			c-0.828-0.225-1.65-0.461-2.483-0.696c3.953,5.089,2.247,14.569,0.771,20.278c-0.842,3.28-2.624,6.582-5.547,8.435
			c-4.308,2.717-3.581-4.712-3.246-7.007c-0.927-0.516-1.862-1.024-2.797-1.542c-0.484,4.503-2.361,9.347-6.583,11.576
			c-1.533,0.811-2.388,1.026-2.506-0.63c-0.193-2.747,1.367-5.576,2.619-7.881c0.565-1.044-2.135-2.886-2.639-1.957
			c-1.691,3.104-3.386,6.207-5.337,9.159c-1.536,2.335-3.939,6.199-7.023,6.519c-1.607,0.17-2.713-5.19-2.657-6.273
			c0.033-0.543,0.361-1.025,0.804-1.314c0.738-0.499,0.182-0.604,0.221,0.176c0.103,2.334-1.787,4.665-3.081,6.416
			c-2.195,2.972-5.586,6.235-9.352,3.366c0.277,0.547,0.559,1.091,0.842,1.628c2.797-3.723,4.625-9.715,4.029-14.342
			c-0.438-3.35-3.714-8.286-7.802-6.911c-3.701,1.24-3.776,7.24-3.922,10.351c-0.191,4.166,0.326,8.288,0.376,12.445
			c0.927,0.421,1.853,0.854,2.779,1.279c-1.24-6.19-0.672-12.511-0.639-18.781C42.167,55.124,39.37,53.599,39.361,54.69
			L39.361,54.69z"/>
	</g>
	<g>
		<path fill="#5F6469" d="M102.852,28.895c0,1.75,0,3.499,0,5.248c0,1.533,3.168,2.341,3.168,0.63c0-1.749,0-3.499,0-5.248
			C106.02,27.992,102.852,27.184,102.852,28.895L102.852,28.895z"/>
	</g>
	<g>
		<path fill="#5F6469" d="M81.489,33.485c0,1.75,0,3.498,0,5.256c0,1.524,3.165,2.333,3.165,0.63c0-1.75,0-3.498,0-5.257
			C84.653,32.591,81.489,31.782,81.489,33.485L81.489,33.485z"/>
	</g>
</g>
</svg>
