<svg xmlns="http://www.w3.org/2000/svg" width="100.006" height="1030" viewBox="0 0 100.006 1030"><path fill="none" stroke="#7A7A7A" stroke-miterlimit="10" d="M2.003 964l12-12"/><path fill="#7A7A7A" d="M8.003 955c1.654 0 3 1.346 3 3s-1.346 3-3 3-3-1.346-3-3 1.346-3 3-3m0-1a4 4 0 1 0 0 8 4 4 0 0 0 0-8z"/><path fill="none" stroke="#FFF" stroke-miterlimit="10" d="M18.003 964l12-12"/><path fill="#FFF" d="M24.003 955c1.654 0 3 1.346 3 3s-1.346 3-3 3-3-1.346-3-3 1.346-3 3-3m0-1a4 4 0 1 0 .002 8.002 4 4 0 0 0-.002-8.002z"/><path d="M2.003 969.116h12v4h-12zm6 6.233l-3 3.533h6z" fill="#7A7A7A"/><path d="M18.003 969.116h12v4h-12zm6 6.233l-3 3.533h6z" fill="#FFF"/><path d="M2.003 990.883h12v4h-12zm6-2.233l-3-3.533h6z" fill="#7A7A7A"/><path d="M18.003 990.882h12v4h-12zm6-2.233l-3-3.533h6z" fill="#FFF"/><path d="M3.121 1000h4v12h-4zm6.233 6l3.533-3v6z" fill="#7A7A7A"/><path d="M19.121 1000h4v12h-4zm6.233 6l3.533-3v6z" fill="#FFF"/><path d="M8.886 1016h4v12h-4zm-2.232 6l-3.534 3v-6z" fill="#7A7A7A"/><path d="M24.887 1016h4v12h-4zm-2.233 6l-3.533 3v-6z" fill="#FFF"/><path d="M25.539 873.984l18.229-12.291c-4.068-5.73-10.699-9.52-18.229-9.693v21.984zm-1.078.474V852c-12.265.281-22.175 10.17-22.458 22.458h22.458zm19.91-11.872l-18.832 12.696-.234.252-11.65 19.476a22.894 22.894 0 0 0 11.244 2.989c12.706.057 23.049-10.198 23.105-22.901a22.894 22.894 0 0 0-3.633-12.512zM24.05 875.535H2.003c.183 7.964 4.415 14.935 10.726 18.923l11.321-18.923z" fill="#7A7A7A"/><path fill="#FFD440" d="M75.539 874.081l18.229-12.291c-4.068-5.731-10.699-9.52-18.229-9.693v21.984z"/><path fill="#3BAFDA" d="M74.461 874.555v-22.458c-12.265.281-22.174 10.17-22.458 22.458h22.458z"/><path fill="#D79DF8" d="M94.371 862.683l-18.832 12.696-.234.252-11.65 19.476a22.894 22.894 0 0 0 11.244 2.989c12.706.056 23.049-10.198 23.105-22.901a22.892 22.892 0 0 0-3.633-12.512z"/><path fill="#B0E433" d="M74.05 875.631H52.003c.183 7.964 4.416 14.935 10.726 18.923l11.321-18.923z"/><path d="M25.666 835.814l.527.231h21.811c0-8.664-4.793-16.207-11.871-20.129l-10.467 19.898zm-.184-22.757v21.048l9.803-18.634a22.885 22.885 0 0 0-9.803-2.414zM3.763 827.214a22.91 22.91 0 0 0-1.76 8.831h21.811l-20.051-8.831zm20.762 8.097v-22.254c-9.028.186-16.777 5.568-20.374 13.281l20.374 8.973z" fill="#7A7A7A"/><path fill="#D79DF8" d="M75.666 835.814l.527.231h21.811c0-8.664-4.793-16.207-11.871-20.129l-10.467 19.898z"/><path fill="#B0E433" d="M75.482 813.057v21.048l9.803-18.634a22.885 22.885 0 0 0-9.803-2.414z"/><path fill="#FFD440" d="M53.763 827.214a22.91 22.91 0 0 0-1.76 8.831h21.811l-20.051-8.831z"/><path fill="#3BAFDA" d="M74.525 835.311v-22.254c-9.028.186-16.777 5.568-20.374 13.281l20.374 8.973z"/><path fill="#D79DF8" d="M62.855 769.353c2.14-4.576 6.773-7.761 12.148-7.761 3.295 0 6.313 1.2 8.65 3.179l6.449-7.104a22.9 22.9 0 0 0-15.1-5.66c-9.354 0-17.397 5.588-20.991 13.607l8.844 3.739z"/><path fill="#FFD440" d="M96.369 783.529a22.935 22.935 0 0 0 1.635-8.517c0-6.579-2.766-12.508-7.191-16.701l-6.449 7.104a13.373 13.373 0 0 1 4.058 9.597c0 1.684-.326 3.291-.895 4.777l8.842 3.74z"/><path fill="#3BAFDA" d="M74.524 788.408c-7.175-.255-12.938-6.158-12.938-13.396 0-1.684.326-3.29.895-4.776l-8.843-3.74a22.935 22.935 0 0 0-1.635 8.517c0 12.545 10.04 22.738 22.521 22.994v-9.599z"/><path fill="#B0E433" d="M87.152 780.671c-2.074 4.438-6.5 7.553-11.669 7.737v9.598c9.147-.188 16.98-5.714 20.512-13.595l-8.843-3.74z"/><path d="M12.855 769.354c2.141-4.577 6.775-7.762 12.148-7.762 3.297 0 6.313 1.2 8.65 3.179l6.449-7.104a22.9 22.9 0 0 0-15.1-5.66c-9.354 0-17.397 5.588-20.991 13.607l8.844 3.74zm33.514 14.175a22.939 22.939 0 0 0 1.635-8.517c0-6.579-2.764-12.509-7.191-16.702l-6.447 7.104a13.375 13.375 0 0 1 4.055 9.597c0 1.684-.324 3.29-.893 4.776l8.841 3.742zm-21.844 4.88c-7.176-.256-12.938-6.158-12.938-13.396 0-1.684.324-3.291.895-4.777l-8.844-3.74a22.939 22.939 0 0 0-1.635 8.517c0 12.544 10.04 22.738 22.521 22.994v-9.598zm12.629-7.738c-2.076 4.438-6.502 7.553-11.672 7.738v9.597c9.15-.187 16.98-5.713 20.514-13.595l-8.842-3.74z" fill="#7A7A7A"/><path fill="#FFD440" d="M63.761 725.516l6.589 13.174h9.307l6.589-13.174z"/><path fill="#D79DF8" d="M95.58 706.848L98.003 702h-46l2.424 4.848z"/><path fill="#B0E433" d="M70.608 739.724h8.791v8.275h-8.791z"/><path fill="#3BAFDA" d="M54.946 707.882l8.3 16.6h23.515l8.301-16.6z"/><path d="M13.707 725.516l6.588 13.174h9.307l6.589-13.174zm31.818-18.668L47.949 702h-46l2.424 4.848zm-24.972 32.876h8.791v8.275h-8.791zM4.89 707.882l8.301 16.6h23.516l8.3-16.6zm-2.887-43.083h10.729V698H2.003zM13.771 652h10.701v46H13.771zm11.74 17.167h10.733v28.832H25.511zm11.772-9.504h10.721v38.336H37.283zM2.003 481.399h10.729V498H2.003zM13.771 452h10.701v29.399H13.771zm11.74 0h10.733v8.85H25.511zm11.772 8.849h10.721v37.15H37.283z" fill="#7A7A7A"/><path fill="#3BAFDA" d="M52.003 481.399h10.729V498H52.003z"/><path fill="#D79DF8" d="M63.771 452h10.701v29.399H63.771z"/><path fill="#B0E433" d="M75.511 452h10.733v8.85H75.511z"/><path fill="#FFD440" d="M87.283 460.849h10.721v37.15H87.283zM52.003 76.238h10.729v21.817H52.003z"/><path fill="#D79DF8" d="M63.771 63.3h10.701v27.153H63.771z"/><path fill="#65C3E6" d="M75.511 67.388h10.733v15.718H75.511z"/><path fill="#B0E433" d="M87.283 52.055h10.721V86.94H87.283z"/><path d="M2.003 76.238h10.729v21.817H2.003zM13.771 63.3h10.701v27.153H13.771zm11.74 4.088h10.733v15.718H25.511zm11.772-15.333h10.721V86.94H37.283z" fill="#7A7A7A"/><path fill="#3BAFDA" d="M52.003 664.799h10.729V698H52.003z"/><path fill="#D79DF8" d="M63.771 652h10.701v46H63.771z"/><path fill="#FFD440" d="M75.511 669.167h10.733v28.832H75.511z"/><path fill="#B0E433" d="M87.283 659.663h10.721v38.336H87.283z"/><path d="M2.003 602h33.201v10.729H2.003zm0 11.767h46v10.701h-46zm0 11.739h28.832v10.734H2.003zm0 11.772h38.338V648H2.003z" fill="#7A7A7A"/><path fill="#3BAFDA" d="M52.003 601.957h33.201v10.729H52.003z"/><path fill="#D79DF8" d="M52.003 613.724h46v10.701h-46z"/><path fill="#FFD440" d="M52.003 625.464h28.832v10.734H52.003z"/><path fill="#B0E433" d="M52.003 637.235h38.338v10.722H52.003z"/><path fill="#D79DF8" d="M88.809 564.047h9.194v13.823h-9.194zM76.557 552h9.166v19.152h-9.166zm-12.283 16.158h9.2v12.004h-9.2zm-12.271-8.946h9.187v15.961h-9.187z"/><path fill="#3BAFDA" d="M88.809 578.772h9.194v6.146h-9.194zm-12.252-6.718h9.166v8.518h-9.166zm-12.283 9.01h9.2v5.338h-9.2zm-12.271-4.988h9.187v7.099h-9.187z"/><path fill="#FFD440" d="M88.809 585.821h9.194v5.138h-9.194zm-12.252-4.347h9.166v7.116h-9.166zm-12.283 5.83h9.2v4.462h-9.2zm-12.271-3.227h9.187v5.931h-9.187z"/><path fill="#B0E433" d="M88.809 591.858h9.194v6.141h-9.194zm-12.252-2.365h9.166V598h-9.166zm-12.283 3.173h9.2v5.333h-9.2zm-12.271-1.756h9.187v7.089h-9.187z"/><path d="M38.809 564.047h9.194v13.823h-9.194zM26.557 552h9.166v19.152h-9.166zm-12.283 16.158h9.2v12.004h-9.2zm-12.271-8.946h9.187v15.961H2.003zm36.806 19.56h9.194v6.146h-9.194zm-12.252-6.718h9.166v8.518h-9.166zm-12.283 9.01h9.2v5.338h-9.2zm-12.271-4.988h9.187v7.099H2.003zm36.806 9.745h9.194v5.138h-9.194zm-12.252-4.347h9.166v7.116h-9.166zm-12.283 5.83h9.2v4.462h-9.2zm-12.271-3.227h9.187v5.931H2.003zm36.806 7.781h9.194v6.141h-9.194zm-12.252-2.365h9.166V598h-9.166zm-12.283 3.173h9.2v5.333h-9.2zM2.003 590.91h9.187v7.089H2.003z" fill="#7A7A7A"/><path fill="#D79DF8" d="M72.133 538.804h13.823v9.195H72.133zm6.718-12.25h19.152v9.166H78.851zm-9.01-12.284h12.004v9.2H69.841zM74.83 502h15.962v9.188H74.83z"/><path fill="#3BAFDA" d="M65.084 538.804h6.146v9.195h-6.146zm4.347-12.25h8.518v9.166h-8.518zm-5.83-12.284h5.338v9.2h-5.338zM66.829 502h7.099v9.188h-7.099z"/><path fill="#FFD440" d="M59.044 538.804h5.138v9.195h-5.138zm2.37-12.25h7.115v9.166h-7.115zm-3.177-12.284h4.462v9.2h-4.462zM59.996 502h5.931v9.188h-5.931z"/><path fill="#B0E433" d="M52.003 538.804h6.141v9.195h-6.141zm0-12.25h8.508v9.166h-8.508zm0-12.284h5.332v9.2h-5.332zm0-12.27h7.09v9.188h-7.09z"/><path d="M22.133 538.804h13.823v9.195H22.133zm6.718-12.25h19.152v9.166H28.851zm-9.01-12.284h12.004v9.2H19.841zM24.83 502h15.962v9.188H24.83zm-9.746 36.804h6.146v9.195h-6.146zm4.347-12.25h8.518v9.166h-8.518zm-5.83-12.284h5.338v9.2h-5.338zM16.829 502h7.099v9.188h-7.099zm-7.785 36.804h5.138v9.195H9.044zm2.37-12.25h7.115v9.166h-7.115zM8.237 514.27h4.462v9.2H8.237zM9.996 502h5.931v9.188H9.996zm-7.993 36.804h6.142v9.195H2.003zm0-12.25h8.508v9.166H2.003zm0-12.284h5.333v9.2H2.003zm0-12.27h7.09v9.188h-7.09z" fill="#7A7A7A"/><g fill="none" stroke-width="2" stroke-linecap="round" stroke-linejoin="round" stroke-miterlimit="10"><path stroke="#3BAFDA" d="M52.503 447.395l7.553-9.162 7.375 3.28 6.77-16.566 8.741 22.553 14.418-22.917"/><path stroke="#FFD440" d="M52.781 425.34l7.373 10.631 7.602-16.214 7.037 16.285 7.167-22.03 7.707 16.995 7.211-17.222"/><path stroke="#B0E433" d="M52.551 436.732l7.406-23.352 7.316 13.876 7.519-13.471 7.55 6.611 7.056-17.896 8.105 44.895"/></g><g fill="none" stroke="#7A7A7A" stroke-width="2" stroke-linecap="round" stroke-linejoin="round" stroke-miterlimit="10"><path d="M2.575 447.395l7.553-9.162 7.375 3.28 6.77-16.566 8.741 22.553 14.418-22.917"/><path d="M2.851 425.34l7.375 10.631 7.603-16.214 7.037 16.285 7.167-22.03 7.707 16.995 7.211-17.222"/><path d="M2.623 436.732l7.406-23.352 7.316 13.876 7.519-13.471 7.551 6.61L39.47 402.5l8.106 44.895"/></g><ellipse fill="#D79DF8" cx="95.128" cy="354.886" rx="2.875" ry="2.888"/><ellipse fill="#D79DF8" cx="85.544" cy="364.51" rx="2.875" ry="2.887"/><ellipse fill="#3BAFDA" cx="92.253" cy="375.097" rx="2.875" ry="2.887"/><ellipse fill="#3BAFDA" cx="73.087" cy="365.472" rx="2.875" ry="2.888"/><ellipse fill="#FFD440" cx="73.087" cy="384.72" rx="2.875" ry="2.887"/><ellipse fill="#B0E433" cx="54.878" cy="395.112" rx="2.875" ry="2.888"/><ellipse fill="#B0E433" cx="57.753" cy="387.413" rx="2.875" ry="2.888"/><ellipse fill="#FFD440" cx="68.294" cy="393.188" rx="2.875" ry="2.888"/><ellipse fill="#FFD440" cx="58.712" cy="373.939" rx="2.875" ry="2.888"/><ellipse fill="#FFD440" cx="68.294" cy="373.939" rx="2.875" ry="2.888"/><ellipse fill="#D79DF8" cx="77.878" cy="360.466" rx="2.875" ry="2.887"/><ellipse fill="#FFD440" cx="78.837" cy="389.338" rx="2.875" ry="2.887"/><ellipse fill="#3BAFDA" cx="81.712" cy="379.714" rx="2.875" ry="2.887"/><g fill="#7A7A7A"><ellipse cx="45.128" cy="354.886" rx="2.875" ry="2.888"/><ellipse cx="35.544" cy="364.51" rx="2.875" ry="2.887"/><ellipse cx="42.253" cy="375.097" rx="2.875" ry="2.887"/><ellipse cx="23.087" cy="365.472" rx="2.875" ry="2.888"/><ellipse cx="23.087" cy="384.72" rx="2.875" ry="2.887"/><ellipse cx="4.879" cy="395.112" rx="2.875" ry="2.888"/><ellipse cx="7.754" cy="387.413" rx="2.875" ry="2.888"/><ellipse cx="18.294" cy="393.188" rx="2.875" ry="2.888"/><ellipse cx="8.712" cy="373.939" rx="2.875" ry="2.888"/><ellipse cx="18.294" cy="373.939" rx="2.875" ry="2.888"/><ellipse cx="27.878" cy="360.466" rx="2.875" ry="2.887"/><ellipse cx="28.837" cy="389.338" rx="2.875" ry="2.887"/><ellipse cx="31.712" cy="379.714" rx="2.875" ry="2.887"/></g><path fill="#B0E433" d="M66.505 339.178l5.526-8.797 10.92 4.881 4.314-5.861 7.895 12.203 2.72-4.65.123-.205v-5.283l-2.808 4.458-8.559-11.966-5.746 6.813-10.042-4.164-5.878 8.772-7.648-3.767-5.219 7.974-.1.118v6.595l6.27-9.838z"/><path fill="#3BAFDA" d="M95.191 342.919l-7.961-12.305-4.053 5.505-10.881-4.863-5.494 8.747-8.236-2.719-6.16 9.664-.297.469-.106.162v.442h46v-9.912z"/><path fill="#FFD440" d="M64.736 334.493l5.853-8.74 10.098 4.187 5.994-7.105 8.477 11.854 2.736-4.346.109.068v-5.789h-.247l-2.194 5.02-9.83-11.159-6.799 8.558-9.221-13.223-7.246 12.025-10.463-2.67v15.305l5.075-7.755z"/><path fill="#D79DF8" d="M69.671 312.552l9.297 13.334 6.737-8.477 9.66 10.965 1.941-4.443h.697v-18.169l-4.037 9.748-10.47-13.489-7.02 9.782-6.785-6.041-10 8.699-7.688-10.482v18.481l10.137 2.588z"/><g fill="#7A7A7A"><path d="M16.505 339.178l5.526-8.797 10.92 4.881 4.314-5.861 7.895 12.203 2.72-4.65.123-.205v-5.283l-2.808 4.458-8.559-11.966-5.746 6.813-10.042-4.164-5.878 8.772-7.649-3.767-5.218 7.974-.1.118v6.595l6.271-9.838z"/><path d="M45.191 342.919l-7.961-12.305-4.053 5.505-10.881-4.863-5.494 8.747-8.236-2.719-6.16 9.664-.298.469-.105.162v.442h46v-9.912z"/><path d="M14.736 334.493l5.853-8.74 10.098 4.187 5.994-7.105 8.477 11.854 2.736-4.346.109.068v-5.789h-.247l-2.194 5.02-9.83-11.159-6.799 8.558-9.221-13.223-7.246 12.025-10.463-2.67v15.305l5.075-7.755z"/><path d="M19.671 312.552l9.297 13.334 6.737-8.477 9.66 10.965 1.941-4.443h.697v-18.169l-4.037 9.748-10.47-13.489-7.02 9.782-6.785-6.041-10 8.699-7.688-10.482v18.481l10.137 2.588z"/></g><path fill="#FFD440" d="M93.934 291.947l-1.082-32.772-15.847 15.846z"/><path fill="#B0E433" d="M58.007 294.019H92l-16.997-16.995z"/><path fill="#D79DF8" d="M59.643 261.664l-3.385 30.098 16.743-16.741z"/><path fill="#3BAFDA" d="M90.612 257.409L61.7 259.714l13.303 13.303z"/><path fill="#7A7A7A" d="M76.338 275.688l-.333-.334-.335-.333.335-.334.333-.334 16.472-16.47 5.193-5.195-.667-.667-5.274 5.272-16.392 16.392-.332.335-.335.333-.335-.333-.332-.335-13.872-13.872-7.794-7.792-.667.667 7.776 7.775 13.889 13.89.333.334.335.334-.335.333-.333.334-17.578 17.579-4.087 4.086.667.668 4.003-4.002 17.663-17.663.332-.335.335-.333.335.333.332.335 17.663 17.663 4.003 4.002.667-.668-4.024-4.025z"/><g fill="#7A7A7A"><path d="M43.934 291.947l-1.082-32.772-15.847 15.846zm-35.926 2.072H42l-16.997-16.995zm1.635-32.355l-3.384 30.098 16.742-16.741zm30.969-4.255L11.7 259.714l13.303 13.303z"/><path d="M26.338 275.688l-.333-.334-.335-.333.335-.334.333-.334 16.472-16.47 5.193-5.195-.667-.667-5.274 5.272-16.392 16.392-.332.335-.335.333-.335-.333-.332-.335-13.872-13.872-7.794-7.792-.667.667 7.776 7.775 13.889 13.89.333.334.335.334-.335.333-.333.334L6.09 293.267l-4.087 4.086.667.668 4.003-4.002 17.663-17.663.332-.335.335-.333.335.333.332.335 17.663 17.663 4.003 4.002.667-.668-4.024-4.025z"/></g><circle fill="#FFD440" cx="58.711" cy="241.313" r="6.708"/><circle fill="#3BAFDA" cx="62.804" cy="218.381" r="7.729"/><circle fill="#3BAFDA" cx="75.962" cy="218.381" r="7.729"/><circle fill="#D79DF8" cx="87.417" cy="235.539" r="9.43"/><circle fill="#FFD440" cx="92.71" cy="207.313" r="5.293"/><circle fill="#B0E433" cx="92.253" cy="212.365" r="3.127"/><circle fill="#B0E433" cx="69.129" cy="237.628" r="3.128"/><circle fill="#B0E433" cx="71.17" cy="233.344" r="3.128"/><g fill="#7A7A7A"><circle cx="8.711" cy="241.313" r="6.708"/><circle cx="12.804" cy="218.381" r="7.729"/><circle cx="25.962" cy="218.381" r="7.729"/><circle cx="37.417" cy="235.539" r="9.43"/><circle cx="42.71" cy="207.313" r="5.293"/><circle cx="42.253" cy="212.365" r="3.127"/><circle cx="19.129" cy="237.628" r="3.128"/><circle cx="21.17" cy="233.344" r="3.128"/></g><path fill="#65C3E6" d="M52.003 170.55h10.729v13.642H52.003z"/><path fill="#D79DF8" d="M63.771 162.316h10.701v8.233H63.771z"/><path fill="#FFD440" d="M75.511 162.316h10.733v21.875H75.511z"/><path fill="#B0E433" d="M87.283 172.853h10.721v11.339H87.283z"/><path fill="none" stroke="#65C3E6" stroke-miterlimit="10" d="M57.369 190.172v-27.856"/><path fill="none" stroke="#D79DF8" stroke-miterlimit="10" d="M69.122 184.192v-32.171"/><path fill="none" stroke="#FFD440" stroke-miterlimit="10" d="M80.876 152.021v38.151"/><path fill="none" stroke="#B0E433" stroke-miterlimit="10" d="M92.642 152.021v46"/><path fill="#7A7A7A" d="M2.003 170.584h10.729v13.642H2.003zm11.768-8.233h10.701v8.233H13.771zm11.74 0h10.733v21.875H25.511zm11.772 10.536h10.721v11.339H37.283z"/><path fill="none" stroke="#7A7A7A" stroke-miterlimit="10" d="M7.368 190.207v-27.856m11.754 21.876v-32.172m11.754 0v38.152m11.766-38.152v46"/><g fill="none" stroke-width="2" stroke-miterlimit="10"><path stroke="#65C3E6" d="M57.753 139.91v-37.855m-5.75 33.063h5.75m4.979-25.636h-4.979"/><path stroke="#D79DF8" d="M69.122 148.055v-40.969m-5.351 6.708h5.351m0 3.714h5.35"/><path stroke="#FFD440" d="M80.876 128.649v-25.636m5.369 2.141h-5.368m-5.366 21.099h5.365"/><path stroke="#B0E433" d="M98.003 104.93h-5.361v32.703m-5.359-8.505h5.359"/></g><path d="M7.753 139.91v-37.855m-5.75 33.063h5.75m4.979-25.636H7.753m11.369 38.573v-40.969m-5.351 6.708h5.351m0 3.714h5.35m6.404 11.141v-25.636m5.369 2.141h-5.368m-5.366 21.099h5.365m17.127-21.323h-5.361v32.703m-5.359-8.505h5.359" fill="none" stroke="#7A7A7A" stroke-width="2" stroke-miterlimit="10"/><path fill="#7A7A7A" d="M45.003 970.116v4.233H42.87l-.296.317-2.194 2.348-.74-2.011-.241-.654h-4.395v-4.233h9.999m1-1h-12v6.233h4.698l1.302 3.533 3.302-3.533h2.698v-6.233z"/><path fill="none" stroke="#7A7A7A" stroke-width=".889" stroke-miterlimit="10" d="M36.003 972.187h8"/><path fill="#FFF" d="M61.003 970.116v4.233H58.87l-.296.317-2.194 2.348-.74-2.011-.241-.654h-4.395v-4.233h9.999m1-1h-12v6.233h4.698l1.302 3.533 3.302-3.533h2.698v-6.233z"/><path fill="none" stroke="#FFF" stroke-width=".889" stroke-miterlimit="10" d="M52.003 972.187h8"/><path fill="#7A7A7A" d="M42.131 988.889a2.203 2.203 0 0 0-1.577-1.576v-3.872h-1.103v3.872c-.771.2-1.376.805-1.576 1.576h-2.42v1.103h2.42a2.2 2.2 0 0 0 1.576 1.577v3.872h1.103v-3.872a2.201 2.201 0 0 0 1.577-1.577h2.42v-1.103h-2.42zm-1.025.552c0 .205-.071.387-.169.551-.095.16-.223.288-.383.383a1.067 1.067 0 0 1-.551.169 1.07 1.07 0 0 1-.552-.169 1.086 1.086 0 0 1-.382-.383 1.067 1.067 0 0 1-.169-.551c0-.206.071-.387.169-.552.095-.159.223-.287.382-.382a1.07 1.07 0 0 1 .552-.169c.205 0 .387.071.551.169.16.095.288.223.383.382.098.165.169.346.169.552zm.99 14.418h2.455v-1.103h-2.455a2.196 2.196 0 0 0-1.541-1.565V1000h-1.103v1.17a2.2 2.2 0 0 0-1.611 1.587h-2.386v1.103h2.386a2.201 2.201 0 0 0 1.611 1.587v1.109a2.197 2.197 0 0 0-1.611 1.586h-2.386v1.103h2.386a2.2 2.2 0 0 0 1.611 1.587V1012h1.103v-1.19a2.194 2.194 0 0 0 1.541-1.565h2.455v-1.103h-2.455a2.194 2.194 0 0 0-1.541-1.565v-1.151a2.197 2.197 0 0 0 1.541-1.567zm-3.06 0a1.07 1.07 0 0 1-.169-.551c0-.206.071-.387.169-.552.103-.171.242-.31.417-.405.155-.085.326-.146.517-.146.22 0 .413.081.586.193.143.093.26.212.348.358.098.165.169.346.169.552 0 .205-.071.386-.169.551a1.092 1.092 0 0 1-.348.358 1.07 1.07 0 0 1-.586.193c-.19 0-.361-.062-.517-.146a1.089 1.089 0 0 1-.417-.405zm2.036 4.833c0 .206-.071.387-.169.552a1.092 1.092 0 0 1-.348.358 1.07 1.07 0 0 1-.586.192c-.19 0-.361-.061-.517-.146a1.086 1.086 0 0 1-.417-.404 1.07 1.07 0 0 1-.169-.552c0-.205.071-.386.169-.551.103-.171.242-.311.417-.405.155-.085.326-.146.517-.146.22 0 .413.081.586.193.143.093.26.212.348.358.097.165.169.346.169.551z"/><path fill="#FFF" d="M58.131 988.889a2.203 2.203 0 0 0-1.577-1.576v-3.872h-1.103v3.872c-.771.2-1.376.805-1.576 1.576h-2.42v1.103h2.42a2.2 2.2 0 0 0 1.576 1.577v3.872h1.103v-3.872a2.201 2.201 0 0 0 1.577-1.577h2.42v-1.103h-2.42zm-1.025.552c0 .205-.071.387-.169.551-.095.16-.223.288-.383.383a1.067 1.067 0 0 1-.551.169 1.07 1.07 0 0 1-.552-.169 1.086 1.086 0 0 1-.382-.383 1.067 1.067 0 0 1-.169-.551c0-.206.071-.387.169-.552.095-.159.223-.287.382-.382a1.07 1.07 0 0 1 .552-.169c.205 0 .387.071.551.169.16.095.288.223.383.382.098.165.169.346.169.552zm.99 14.418h2.455v-1.103h-2.455a2.196 2.196 0 0 0-1.541-1.565V1000h-1.103v1.17a2.2 2.2 0 0 0-1.611 1.587h-2.386v1.103h2.386a2.201 2.201 0 0 0 1.611 1.587v1.109a2.197 2.197 0 0 0-1.611 1.586h-2.386v1.103h2.386a2.2 2.2 0 0 0 1.611 1.587V1012h1.103v-1.19a2.194 2.194 0 0 0 1.541-1.565h2.455v-1.103h-2.455a2.194 2.194 0 0 0-1.541-1.565v-1.151a2.197 2.197 0 0 0 1.541-1.567zm-3.06 0a1.07 1.07 0 0 1-.169-.551c0-.206.071-.387.169-.552.103-.171.242-.31.417-.405.155-.085.326-.146.517-.146.22 0 .413.081.586.193.143.093.26.212.348.358.098.165.169.346.169.552 0 .205-.071.386-.169.551a1.092 1.092 0 0 1-.348.358 1.07 1.07 0 0 1-.586.193c-.19 0-.361-.062-.517-.146a1.089 1.089 0 0 1-.417-.405zm2.036 4.833c0 .206-.071.387-.169.552a1.092 1.092 0 0 1-.348.358 1.07 1.07 0 0 1-.586.192c-.19 0-.361-.061-.517-.146a1.086 1.086 0 0 1-.417-.404 1.07 1.07 0 0 1-.169-.552c0-.205.071-.386.169-.551.103-.171.242-.311.417-.405.155-.085.326-.146.517-.146.22 0 .413.081.586.193.143.093.26.212.348.358.097.165.169.346.169.551z"/><path fill="#7A7A7A" d="M2.003 2.055h4.894v4.894H2.003zm0 5.872h4.894v4.894H2.003zm5.873-5.872h4.893v4.894H7.876zm0 5.872h4.893v4.894H7.876zm5.873-5.872h4.894v4.894h-4.894z"/><path opacity=".75" fill="#7A7A7A" d="M13.749 7.927h4.894v4.894h-4.894z"/><path fill="#7A7A7A" d="M19.621 2.055h4.894v4.894h-4.894z"/><path opacity=".75" fill="#7A7A7A" d="M19.621 7.927h4.894v4.894h-4.894z"/><path fill="#7A7A7A" d="M25.493 2.055h4.894v4.894h-4.894z"/><path opacity=".75" fill="#7A7A7A" d="M25.493 7.927h4.894v4.894h-4.894z"/><path fill="#7A7A7A" d="M31.365 2.055h4.894v4.894h-4.894z"/><path opacity=".75" fill="#7A7A7A" d="M31.365 7.927h4.894v4.894h-4.894z"/><path fill="#7A7A7A" d="M37.238 2.055h4.894v4.894h-4.894zm0 5.872h4.894v4.894h-4.894zm5.872 0h4.894v4.894H43.11zm0-5.872h4.894v4.894H43.11zM2.003 13.8h4.894v4.894H2.003z"/><path opacity=".75" fill="#7A7A7A" d="M2.003 19.672h4.894v4.894H2.003zM7.876 13.8h4.893v4.894H7.876zm0 5.872h4.893v4.894H7.876zm5.873-5.872h4.894v4.894h-4.894z"/><path opacity=".5" fill="#7A7A7A" d="M13.749 19.672h4.894v4.894h-4.894zm5.872-5.872h4.894v4.894h-4.894z"/><path opacity=".25" fill="#7A7A7A" d="M19.621 19.672h4.894v4.894h-4.894z"/><path opacity=".5" fill="#7A7A7A" d="M25.493 13.8h4.894v4.894h-4.894z"/><path opacity=".25" fill="#7A7A7A" d="M25.493 19.672h4.894v4.894h-4.894z"/><path opacity=".75" fill="#7A7A7A" d="M31.365 13.8h4.894v4.894h-4.894z"/><path opacity=".5" fill="#7A7A7A" d="M31.365 19.672h4.894v4.894h-4.894z"/><path opacity=".75" fill="#7A7A7A" d="M37.238 13.8h4.894v4.894h-4.894zm0 5.872h4.894v4.894h-4.894zm5.872 0h4.894v4.894H43.11z"/><path fill="#7A7A7A" d="M43.11 13.8h4.894v4.894H43.11z"/><path opacity=".75" fill="#7A7A7A" d="M2.003 25.544h4.894v4.894H2.003z"/><path fill="#7A7A7A" d="M2.003 31.417h4.894v4.894H2.003z"/><path opacity=".75" fill="#7A7A7A" d="M7.876 25.544h4.893v4.894H7.876zm0 5.873h4.893v4.894H7.876z"/><path opacity=".5" fill="#7A7A7A" d="M13.749 25.544h4.894v4.894h-4.894z"/><path opacity=".75" fill="#7A7A7A" d="M13.749 31.417h4.894v4.894h-4.894z"/><path opacity=".25" fill="#7A7A7A" d="M19.621 25.544h4.894v4.894h-4.894z"/><path opacity=".5" fill="#7A7A7A" d="M19.621 31.417h4.894v4.894h-4.894z"/><path opacity=".25" fill="#7A7A7A" d="M25.493 25.544h4.894v4.894h-4.894z"/><path opacity=".5" fill="#7A7A7A" d="M25.493 31.417h4.894v4.894h-4.894zm5.872-5.873h4.894v4.894h-4.894z"/><path opacity=".75" fill="#7A7A7A" d="M31.365 31.417h4.894v4.894h-4.894zm5.873-5.873h4.894v4.894h-4.894zm0 5.873h4.894v4.894h-4.894z"/><path fill="#7A7A7A" d="M43.11 31.417h4.894v4.894H43.11z"/><path opacity=".75" fill="#7A7A7A" d="M43.11 25.544h4.894v4.894H43.11z"/><path fill="#7A7A7A" d="M2.003 37.289h4.894v4.894H2.003zm0 5.873h4.894v4.894H2.003zm5.873-5.873h4.893v4.894H7.876zm0 5.873h4.893v4.894H7.876z"/><path opacity=".75" fill="#7A7A7A" d="M13.749 37.289h4.894v4.894h-4.894z"/><path fill="#7A7A7A" d="M13.749 43.162h4.894v4.894h-4.894z"/><path opacity=".75" fill="#7A7A7A" d="M19.621 37.289h4.894v4.894h-4.894z"/><path fill="#7A7A7A" d="M19.621 43.162h4.894v4.894h-4.894z"/><path opacity=".75" fill="#7A7A7A" d="M25.493 37.289h4.894v4.894h-4.894z"/><path fill="#7A7A7A" d="M25.493 43.162h4.894v4.894h-4.894z"/><path opacity=".75" fill="#7A7A7A" d="M31.365 37.289h4.894v4.894h-4.894z"/><path fill="#7A7A7A" d="M31.365 43.162h4.894v4.894h-4.894zm5.873-5.873h4.894v4.894h-4.894zm0 5.873h4.894v4.894h-4.894zm5.872 0h4.894v4.894H43.11zm0-5.873h4.894v4.894H43.11z"/><path fill="#D79DF8" d="M52.003 2.055h4.894v4.894h-4.894zm0 5.872h4.894v4.894h-4.894zm5.873-5.872h4.893v4.894h-4.893zm0 5.872h4.893v4.894h-4.893zm5.873-5.872h4.894v4.894h-4.894z"/><path fill="#FFD440" d="M63.749 7.927h4.894v4.894h-4.894z"/><path fill="#D79DF8" d="M69.621 2.055h4.894v4.894h-4.894z"/><path fill="#FFD440" d="M69.621 7.927h4.894v4.894h-4.894z"/><path fill="#D79DF8" d="M75.493 2.055h4.894v4.894h-4.894z"/><path fill="#FFD440" d="M75.493 7.927h4.894v4.894h-4.894z"/><path fill="#D79DF8" d="M81.365 2.055h4.894v4.894h-4.894z"/><path fill="#FFD440" d="M81.365 7.927h4.894v4.894h-4.894z"/><path fill="#D79DF8" d="M87.238 2.055h4.894v4.894h-4.894zm0 5.872h4.894v4.894h-4.894zm5.872 0h4.894v4.894H93.11zm0-5.872h4.894v4.894H93.11zM52.003 13.8h4.894v4.894h-4.894z"/><path fill="#FFD440" d="M52.003 19.672h4.894v4.894h-4.894zm5.873-5.872h4.893v4.894h-4.893zm0 5.872h4.893v4.894h-4.893zm5.873-5.872h4.894v4.894h-4.894z"/><path fill="#3BAFDA" d="M63.749 19.672h4.894v4.894h-4.894zm5.872-5.872h4.894v4.894h-4.894z"/><path fill="#B0E433" d="M69.621 19.672h4.894v4.894h-4.894z"/><path fill="#3BAFDA" d="M75.493 13.8h4.894v4.894h-4.894z"/><path fill="#B0E433" d="M75.493 19.672h4.894v4.894h-4.894z"/><path fill="#FFD440" d="M81.365 13.8h4.894v4.894h-4.894z"/><path fill="#3BAFDA" d="M81.365 19.672h4.894v4.894h-4.894z"/><path fill="#FFD440" d="M87.238 13.8h4.894v4.894h-4.894zm0 5.872h4.894v4.894h-4.894zm5.872 0h4.894v4.894H93.11z"/><path fill="#D79DF8" d="M93.11 13.8h4.894v4.894H93.11z"/><path fill="#FFD440" d="M52.003 25.544h4.894v4.894h-4.894z"/><path fill="#D79DF8" d="M52.003 31.417h4.894v4.894h-4.894z"/><path fill="#FFD440" d="M57.876 25.544h4.893v4.894h-4.893zm0 5.873h4.893v4.894h-4.893z"/><path fill="#3BAFDA" d="M63.749 25.544h4.894v4.894h-4.894z"/><path fill="#FFD440" d="M63.749 31.417h4.894v4.894h-4.894z"/><path fill="#B0E433" d="M69.621 25.544h4.894v4.894h-4.894z"/><path fill="#3BAFDA" d="M69.621 31.417h4.894v4.894h-4.894z"/><path fill="#B0E433" d="M75.493 25.544h4.894v4.894h-4.894z"/><path fill="#3BAFDA" d="M75.493 31.417h4.894v4.894h-4.894zm5.872-5.873h4.894v4.894h-4.894z"/><path fill="#FFD440" d="M81.365 31.417h4.894v4.894h-4.894zm5.873-5.873h4.894v4.894h-4.894zm0 5.873h4.894v4.894h-4.894z"/><path fill="#D79DF8" d="M93.11 31.417h4.894v4.894H93.11z"/><path fill="#FFD440" d="M93.11 25.544h4.894v4.894H93.11z"/><path fill="#D79DF8" d="M52.003 37.289h4.894v4.894h-4.894zm0 5.873h4.894v4.894h-4.894zm5.873-5.873h4.893v4.894h-4.893zm0 5.873h4.893v4.894h-4.893z"/><path fill="#FFD440" d="M63.749 37.289h4.894v4.894h-4.894z"/><path fill="#D79DF8" d="M63.749 43.162h4.894v4.894h-4.894z"/><path fill="#FFD440" d="M69.621 37.289h4.894v4.894h-4.894z"/><path fill="#D79DF8" d="M69.621 43.162h4.894v4.894h-4.894z"/><path fill="#FFD440" d="M75.493 37.289h4.894v4.894h-4.894z"/><path fill="#D79DF8" d="M75.493 43.162h4.894v4.894h-4.894z"/><path fill="#FFD440" d="M81.365 37.289h4.894v4.894h-4.894z"/><path fill="#D79DF8" d="M81.365 43.162h4.894v4.894h-4.894zm5.873-5.873h4.894v4.894h-4.894zm0 5.873h4.894v4.894h-4.894zm5.872 0h4.894v4.894H93.11zm0-5.873h4.894v4.894H93.11zM64.863 910.19l-2.041-3.631a23.457 23.457 0 0 0-4.344 3.312l2.956 2.923a19.284 19.284 0 0 1 3.429-2.604z"/><path fill="#3BAFDA" d="M93.5 923.015l4.098-.679a23.092 23.092 0 0 0-1.488-4.887l-3.772 1.724c.516 1.22.904 2.508 1.162 3.842zm.356 3.637c0 .42-.037.832-.063 1.246l4.149.384a25.12 25.12 0 0 0 .062-1.63c0-1.118-.084-2.217-.236-3.294l-4.111.681c.117.857.199 1.725.199 2.613z"/><path fill="#D79DF8" d="M74.197 907.489v-4.161a23.183 23.183 0 0 0-10.472 2.721l2.037 3.623a19.047 19.047 0 0 1 8.435-2.183zm0 5.185v-4.148a18.018 18.018 0 0 0-7.925 2.05l2.034 3.619a13.917 13.917 0 0 1 5.891-1.521z"/><path fill="#3BAFDA" d="M87.173 920.391l3.77-1.722c-2.882-5.85-8.81-9.923-15.709-10.137v4.148c5.226.21 9.716 3.289 11.939 7.711z"/><path fill="#B0E433" d="M75.234 940.625v4.149a18.003 18.003 0 0 0 7.905-2.082l-2.034-3.619a13.89 13.89 0 0 1-5.871 1.552z"/><path fill="#FFD440" d="M62.18 932.949l-3.77 1.722c2.901 5.858 8.861 9.928 15.786 10.107v-4.149c-5.252-.175-9.775-3.251-12.016-7.68z"/><path fill="#FFD440" d="M67.4 930.564l-4.277 1.954c2.078 4.073 6.239 6.899 11.074 7.074v-4.67a8.285 8.285 0 0 1-6.797-4.358z"/><path fill="#D79DF8" d="M60.667 926.652c0-.861.09-1.7.239-2.519l-4.055-.895a18.12 18.12 0 0 0-.332 3.414c0 2.513.514 4.906 1.44 7.084l3.778-1.726a13.895 13.895 0 0 1-1.07-5.358zm.04-13.119l-2.959-2.925a23.322 23.322 0 0 0-5.744 10.498l4.071.898a19.135 19.135 0 0 1 4.632-8.471z"/><path fill="#3BAFDA" d="M92.746 933.024l3.892 1.494a23.237 23.237 0 0 0 1.211-5.203l-4.141-.384a19.087 19.087 0 0 1-.962 4.093zm-8.204 10.048l2.044 3.633a23.483 23.483 0 0 0 9.676-11.219l-3.874-1.489a19.27 19.27 0 0 1-7.846 9.075z"/><path fill="#3BAFDA" d="M92.819 926.652c0-2.499-.51-4.88-1.426-7.049l-3.78 1.727a13.892 13.892 0 0 1 1.057 5.322c0 5.029-2.674 9.434-6.666 11.903l2.031 3.613c5.254-3.183 8.784-8.937 8.784-15.516z"/><path fill="#D79DF8" d="M67.403 914.707l-2.031-3.613a18.187 18.187 0 0 0-8.285 11.135l4.048.894a14.026 14.026 0 0 1 6.268-8.416z"/><path fill="#D79DF8" d="M66.636 928.517a8.182 8.182 0 0 1-.175-1.023 8.351 8.351 0 0 1-.043-.841c0-.083.01-.165.013-.247.011-.35.043-.693.096-1.031v-.002c.055-.345.125-.682.219-1.012.02-.065.032-.131.053-.195.104-.333.236-.652.379-.966a8.273 8.273 0 0 1 2.02-2.732 8.062 8.062 0 0 1 1.915-1.281 8.22 8.22 0 0 1 3.084-.805v-4.67c-6.93.25-12.493 5.951-12.493 12.94 0 1.744.352 3.407.979 4.927l4.292-1.96a8.078 8.078 0 0 1-.339-1.102z"/><path fill="#B0E433" d="M75.234 934.923v4.665a12.858 12.858 0 0 0 5.356-1.416l-2.282-4.05a8.237 8.237 0 0 1-3.074.801z"/><path fill="#3BAFDA" d="M87.632 926.652c0-6.958-5.513-12.636-12.398-12.936v4.665a8.285 8.285 0 0 1 6.797 4.358c.164.303.302.621.426.946.137.356.252.723.338 1.102.077.334.141.674.176 1.022.027.277.042.558.042.842 0 .083-.01.164-.013.247-.01.349-.042.693-.095 1.031v.002a8.663 8.663 0 0 1-.219 1.012c-.02.065-.033.131-.053.195a7.971 7.971 0 0 1-.38.966 8.301 8.301 0 0 1-2.999 3.485l2.259 4.053c3.668-2.293 6.119-6.355 6.119-10.99z"/><g fill="#7A7A7A"><path d="M14.78 910.19l-2.041-3.631a23.457 23.457 0 0 0-4.344 3.312l2.956 2.923a19.284 19.284 0 0 1 3.429-2.604zm28.637 12.825l4.098-.679a23.092 23.092 0 0 0-1.488-4.887l-3.772 1.724c.516 1.22.904 2.508 1.162 3.842zm.356 3.637c0 .42-.037.832-.063 1.246l4.149.384a25.12 25.12 0 0 0 .062-1.63c0-1.118-.084-2.217-.236-3.294l-4.111.681c.117.857.199 1.725.199 2.613zm-19.659-19.163v-4.161a23.183 23.183 0 0 0-10.472 2.721l2.037 3.623a19.047 19.047 0 0 1 8.435-2.183zm0 5.185v-4.148a18.018 18.018 0 0 0-7.925 2.05l2.034 3.619a13.917 13.917 0 0 1 5.891-1.521zm12.976 7.717l3.77-1.722c-2.882-5.85-8.81-9.923-15.709-10.137v4.148c5.226.21 9.716 3.289 11.939 7.711zm-11.939 20.234v4.149a18.003 18.003 0 0 0 7.905-2.082l-2.034-3.619a13.89 13.89 0 0 1-5.871 1.552zm-13.054-7.676l-3.77 1.722c2.901 5.858 8.861 9.928 15.786 10.107v-4.149c-5.252-.175-9.775-3.251-12.016-7.68z"/><path d="M17.317 930.564l-4.277 1.954c2.078 4.073 6.239 6.899 11.074 7.074v-4.67a8.285 8.285 0 0 1-6.797-4.358zm-6.734-3.912c0-.861.09-1.7.239-2.519l-4.055-.895a18.12 18.12 0 0 0-.332 3.414c0 2.513.514 4.906 1.44 7.084l3.778-1.726a13.914 13.914 0 0 1-1.07-5.358zm.041-13.119l-2.959-2.925a23.322 23.322 0 0 0-5.744 10.498l4.071.898a19.135 19.135 0 0 1 4.632-8.471zm32.039 19.491l3.892 1.494a23.237 23.237 0 0 0 1.211-5.203l-4.141-.384a19.087 19.087 0 0 1-.962 4.093zm-8.204 10.048l2.044 3.633a23.483 23.483 0 0 0 9.676-11.219l-3.874-1.489a19.27 19.27 0 0 1-7.846 9.075z"/><path d="M42.736 926.652c0-2.499-.51-4.88-1.426-7.049l-3.78 1.727a13.892 13.892 0 0 1 1.057 5.322c0 5.029-2.674 9.434-6.666 11.903l2.031 3.613c5.254-3.183 8.784-8.937 8.784-15.516zM17.32 914.707l-2.031-3.613a18.187 18.187 0 0 0-8.285 11.135l4.048.894a14.026 14.026 0 0 1 6.268-8.416z"/><path d="M16.553 928.517a8.182 8.182 0 0 1-.175-1.023 8.351 8.351 0 0 1-.043-.841c0-.083.01-.165.013-.247.011-.35.043-.693.096-1.031v-.002c.055-.345.125-.682.219-1.012.02-.065.032-.131.053-.195.104-.333.236-.652.379-.966a8.273 8.273 0 0 1 2.02-2.732 8.062 8.062 0 0 1 1.915-1.281 8.22 8.22 0 0 1 3.084-.805v-4.67c-6.93.25-12.493 5.951-12.493 12.94 0 1.744.352 3.407.979 4.927l4.292-1.96a8.078 8.078 0 0 1-.339-1.102zm8.598 6.406v4.665a12.858 12.858 0 0 0 5.356-1.416l-2.282-4.05a8.237 8.237 0 0 1-3.074.801zm12.398-8.271c0-6.958-5.513-12.636-12.398-12.936v4.665a8.285 8.285 0 0 1 6.797 4.358c.164.303.302.621.426.946.137.356.252.723.338 1.102.077.334.141.674.176 1.022.027.277.042.558.042.842 0 .083-.01.164-.013.247-.01.349-.042.693-.095 1.031v.002a8.663 8.663 0 0 1-.219 1.012c-.02.065-.033.131-.053.195a7.971 7.971 0 0 1-.38.966 8.301 8.301 0 0 1-2.999 3.485l2.259 4.053c3.668-2.293 6.119-6.355 6.119-10.99z"/></g></svg>