<?xml version="1.0" encoding="UTF-8" standalone="no"?>
<!-- Created with Inkscape (http://www.inkscape.org/) -->

<svg
   xmlns:dc="http://purl.org/dc/elements/1.1/"
   xmlns:cc="http://creativecommons.org/ns#"
   xmlns:rdf="http://www.w3.org/1999/02/22-rdf-syntax-ns#"
   xmlns:svg="http://www.w3.org/2000/svg"
   xmlns="http://www.w3.org/2000/svg"
   xmlns:sodipodi="http://sodipodi.sourceforge.net/DTD/sodipodi-0.dtd"
   xmlns:inkscape="http://www.inkscape.org/namespaces/inkscape"
   width="40.731365mm"
   height="40.77441mm"
   viewBox="0 0 40.731365 40.77441"
   version="1.1"
   id="svg420"
   inkscape:version="0.92.3 (2405546, 2018-03-11)"
   sodipodi:docname="whatsapp_meaningful_logo.svg">
  <defs
     id="defs414" />
  <sodipodi:namedview
     id="base"
     pagecolor="#ffffff"
     bordercolor="#666666"
     borderopacity="1.0"
     inkscape:pageopacity="0.0"
     inkscape:pageshadow="2"
     inkscape:zoom="2.8"
     inkscape:cx="91.635083"
     inkscape:cy="65.130862"
     inkscape:document-units="mm"
     inkscape:current-layer="layer1"
     showgrid="false"
     fit-margin-top="0"
     fit-margin-left="0"
     fit-margin-right="0"
     fit-margin-bottom="0"
     inkscape:window-width="960"
     inkscape:window-height="1053"
     inkscape:window-x="0"
     inkscape:window-y="27"
     inkscape:window-maximized="0" />
  <metadata
     id="metadata417">
    <rdf:RDF>
      <cc:Work
         rdf:about="">
        <dc:format>image/svg+xml</dc:format>
        <dc:type
           rdf:resource="http://purl.org/dc/dcmitype/StillImage" />
        <dc:title></dc:title>
      </cc:Work>
    </rdf:RDF>
  </metadata>
  <g
     inkscape:label="Layer 1"
     inkscape:groupmode="layer"
     id="layer1"
     transform="translate(-58.274087,-150.36875)">
    <path
       inkscape:connector-curvature="0"
       id="path264"
       d="m 74.715982,150.51826 13.39659,40.00842 c 6.30101,-1.91503 10.89288,-8.10207 10.89288,-15.48434 v -8.42326 c 0,-8.91976 -6.70132,-16.10082 -15.02492,-16.10082 z m -7.276047,39.36349 c 0.44968,0.20315 0.910275,0.38368 1.38131,0.54002 -0.470882,-0.1563 -0.931767,-0.33695 -1.38131,-0.54002 z m 1.381828,0.54002 c 0.470887,0.15628 0.952022,0.28848 1.441773,0.39533 -0.489918,-0.10688 -0.97073,-0.23899 -1.441773,-0.39533 z m 19.286169,0.10646 c -0.45896,0.13932 -0.92728,0.25486 -1.40302,0.3483 0.47608,-0.0928 0.94397,-0.20896 1.40302,-0.3483 z m -1.58647,0.38292 c -0.12737,0.0233 -0.25499,0.0458 -0.38344,0.0656 0.12855,-0.0197 0.25598,-0.0425 0.38344,-0.0656 z m -15.51637,0.047 c 0.74763,0.12175 1.51358,0.18501 2.29392,0.18501 -0.78034,0 -1.54628,-0.0633 -2.29392,-0.18501 z m 14.56707,0.0951 c -0.0765,0.009 -0.15363,0.0143 -0.23047,0.0217 0.0768,-0.007 0.15401,-0.0131 0.23047,-0.0217 z m -0.68574,0.0589 c -0.0791,0.005 -0.15829,0.01 -0.23772,0.0134 0.0795,-0.004 0.1586,-0.008 0.23772,-0.0134 z"
       style="color:#000000;clip-rule:nonzero;display:inline;overflow:visible;visibility:visible;opacity:1;isolation:auto;mix-blend-mode:normal;color-interpolation:sRGB;color-interpolation-filters:linearRGB;solid-color:#000000;solid-opacity:1;fill:#eeedee;fill-opacity:1;fill-rule:nonzero;stroke:none;stroke-width:0.18097498;stroke-linecap:butt;stroke-linejoin:miter;stroke-miterlimit:4;stroke-dasharray:none;stroke-dashoffset:0;stroke-opacity:1;marker:none;color-rendering:auto;image-rendering:auto;shape-rendering:auto;text-rendering:auto;enable-background:accumulate" />
    <path
       inkscape:connector-curvature="0"
       id="path266"
       d="m 73.299012,150.5181 c -8.323605,0 -15.024925,7.18106 -15.024925,16.10082 v 8.42378 c 0,8.91977 6.70132,16.10031 15.024925,16.10031 h 10.68152 c 1.43475,0 2.81973,-0.21765 4.13205,-0.6165 l -13.3966,-40.00841 z"
       style="color:#000000;clip-rule:nonzero;display:inline;overflow:visible;visibility:visible;opacity:1;isolation:auto;mix-blend-mode:normal;color-interpolation:sRGB;color-interpolation-filters:linearRGB;solid-color:#000000;solid-opacity:1;fill:#29bb5b;fill-opacity:1;fill-rule:nonzero;stroke:none;stroke-width:0.18097498;stroke-linecap:butt;stroke-linejoin:miter;stroke-miterlimit:4;stroke-dasharray:none;stroke-dashoffset:0;stroke-opacity:1;marker:none;color-rendering:auto;image-rendering:auto;shape-rendering:auto;text-rendering:auto;enable-background:accumulate" />
    <path
       inkscape:connector-curvature="0"
       d="m 92.065682,174.47844 h -5.86875 v 1.17376 h 5.86875 z m 3.52126,-4.69499 h -9.39001 v 1.17374 h 9.39001 z m -9.39001,3.52125 h 9.39001 v -1.17375 h -9.39001 z m 0,-5.86875 v 1.17374 h 9.39001 v -1.17374 z"
       id="path358"
       style="fill:#64808e;fill-opacity:1;stroke-width:0.58687562" />
    <path
       inkscape:connector-curvature="0"
       id="path270"
       d="m 74.615893,150.36875 0.01817,0.0534 0.104809,-0.0534 z m 0.05031,0.14996 13.401373,40.02304 c 6.32692,-1.92291 10.937689,-8.13538 10.937689,-15.54803 v -0.5713 z m 11.803707,40.4091 c -0.127884,0.0234 -0.256039,0.046 -0.385017,0.0659 0.129079,-0.0198 0.257033,-0.0427 0.385017,-0.0659 z m -0.953195,0.1427 c -0.07681,0.009 -0.154262,0.0143 -0.231428,0.0218 0.07712,-0.007 0.154644,-0.0132 0.231428,-0.0218 z m -0.688571,0.0591 c -0.07943,0.005 -0.158931,0.01 -0.238687,0.0135 0.07973,-0.004 0.159242,-0.008 0.238687,-0.0135 z"
       style="color:#000000;clip-rule:nonzero;display:inline;overflow:visible;visibility:visible;opacity:0.35;isolation:auto;mix-blend-mode:normal;color-interpolation:sRGB;color-interpolation-filters:linearRGB;solid-color:#000000;solid-opacity:1;fill:#bfbfbf;fill-opacity:1;fill-rule:nonzero;stroke:none;stroke-width:0.18171944;stroke-linecap:butt;stroke-linejoin:miter;stroke-miterlimit:4;stroke-dasharray:none;stroke-dashoffset:0;stroke-opacity:1;marker:none;color-rendering:auto;image-rendering:auto;shape-rendering:auto;text-rendering:auto;enable-background:accumulate"
       sodipodi:nodetypes="ccccccsccccccccccc" />
    <g
       id="g338"
       transform="matrix(0.15539021,0,0,0.15539021,63.044464,164.55152)"
       style="fill:#eeedee;fill-opacity:1">
      <g
         id="g282"
         style="fill:#eeedee;fill-opacity:1">
        <path
           d="m 90,43.841 c 0,24.213 -19.779,43.841 -44.182,43.841 -7.747,0 -15.025,-1.98 -21.357,-5.455 L 0,90 7.975,66.478 C 3.952,59.872 1.635,52.124 1.635,43.841 1.635,19.628 21.416,0 45.818,0 70.223,0 90,19.628 90,43.841 Z M 45.818,6.982 c -20.484,0 -37.146,16.535 -37.146,36.859 0,8.065 2.629,15.534 7.076,21.61 L 11.107,79.14 25.382,74.603 C 31.247,78.454 38.273,80.7 45.819,80.7 66.3,80.7 82.965,64.167 82.965,43.843 82.965,23.519 66.301,6.982 45.818,6.982 Z m 22.311,46.956 c -0.273,-0.447 -0.994,-0.717 -2.076,-1.254 -1.084,-0.537 -6.41,-3.138 -7.4,-3.495 -0.993,-0.358 -1.717,-0.538 -2.438,0.537 -0.721,1.076 -2.797,3.495 -3.43,4.212 -0.632,0.719 -1.263,0.809 -2.347,0.271 -1.082,-0.537 -4.571,-1.673 -8.708,-5.333 -3.219,-2.848 -5.393,-6.364 -6.025,-7.441 -0.631,-1.075 -0.066,-1.656 0.475,-2.191 0.488,-0.482 1.084,-1.255 1.625,-1.882 0.543,-0.628 0.723,-1.075 1.082,-1.793 0.363,-0.717 0.182,-1.344 -0.09,-1.883 -0.27,-0.537 -2.438,-5.825 -3.34,-7.977 -0.902,-2.15 -1.803,-1.792 -2.436,-1.792 -0.631,0 -1.354,-0.09 -2.076,-0.09 -0.722,0 -1.896,0.269 -2.889,1.344 -0.992,1.076 -3.789,3.676 -3.789,8.963 0,5.288 3.879,10.397 4.422,11.113 0.541,0.716 7.49,11.92 18.5,16.223 11.011,4.301 11.011,2.866 12.997,2.686 1.984,-0.179 6.406,-2.599 7.312,-5.107 0.9,-2.512 0.9,-4.663 0.631,-5.111 z"
           id="WhatsApp"
           inkscape:connector-curvature="0"
           style="fill:#eeedee;fill-opacity:1" />
      </g>
      <g
         id="g284"
         style="fill:#eeedee;fill-opacity:1" />
      <g
         id="g286"
         style="fill:#eeedee;fill-opacity:1" />
      <g
         id="g288"
         style="fill:#eeedee;fill-opacity:1" />
      <g
         id="g290"
         style="fill:#eeedee;fill-opacity:1" />
      <g
         id="g292"
         style="fill:#eeedee;fill-opacity:1" />
      <g
         id="g294"
         style="fill:#eeedee;fill-opacity:1" />
      <g
         id="g296"
         style="fill:#eeedee;fill-opacity:1" />
      <g
         id="g298"
         style="fill:#eeedee;fill-opacity:1" />
      <g
         id="g300"
         style="fill:#eeedee;fill-opacity:1" />
      <g
         id="g302"
         style="fill:#eeedee;fill-opacity:1" />
      <g
         id="g304"
         style="fill:#eeedee;fill-opacity:1" />
      <g
         id="g306"
         style="fill:#eeedee;fill-opacity:1" />
      <g
         id="g308"
         style="fill:#eeedee;fill-opacity:1" />
      <g
         id="g310"
         style="fill:#eeedee;fill-opacity:1" />
      <g
         id="g312"
         style="fill:#eeedee;fill-opacity:1" />
    </g>
  </g>
</svg>
