<?xml version="1.0" encoding="utf-8"?>
<!-- Generator: Adobe Illustrator 16.0.0, SVG Export Plug-In . SVG Version: 6.00 Build 0)  -->
<!DOCTYPE svg PUBLIC "-//W3C//DTD SVG 1.1//EN" "http://www.w3.org/Graphics/SVG/1.1/DTD/svg11.dtd">
<svg version="1.1" id="Calque_1" xmlns="http://www.w3.org/2000/svg" xmlns:xlink="http://www.w3.org/1999/xlink" x="0px" y="0px"
	 width="80px" height="80px" viewBox="0 0 80 80" enable-background="new 0 0 80 80" xml:space="preserve">
<g>
	<g>
		<g>
			
				<linearGradient id="SVGID_1_" gradientUnits="userSpaceOnUse" x1="-24.979" y1="-662.4775" x2="-22.9844" y2="-662.4775" gradientTransform="matrix(1 0 0 -1 75.6597 -633.4004)">
				<stop  offset="0" style="stop-color:#F7F8A6"/>
				<stop  offset="0.073" style="stop-color:#F7CA33"/>
				<stop  offset="0.0965" style="stop-color:#F7CD3B"/>
				<stop  offset="0.1335" style="stop-color:#F7D751"/>
				<stop  offset="0.1793" style="stop-color:#F7E676"/>
				<stop  offset="0.2247" style="stop-color:#F7F8A6"/>
				<stop  offset="0.3202" style="stop-color:#F6D868"/>
				<stop  offset="0.4045" style="stop-color:#CFAE41"/>
				<stop  offset="0.4647" style="stop-color:#D8B43E"/>
				<stop  offset="0.5573" style="stop-color:#F2C635"/>
				<stop  offset="0.573" style="stop-color:#F7CA33"/>
				<stop  offset="0.9157" style="stop-color:#DEB430"/>
				<stop  offset="1" style="stop-color:#F7CA33"/>
			</linearGradient>
			<polyline fill="none" stroke="url(#SVGID_1_)" stroke-width="0.1992" stroke-miterlimit="10" points="50.681,30.868 
				52.551,30.866 51.724,27.208 			"/>
			
				<linearGradient id="SVGID_2_" gradientUnits="userSpaceOnUse" x1="-28.9194" y1="-648.4141" x2="-24.0952" y2="-648.4141" gradientTransform="matrix(1 0 0 -1 75.6597 -633.4004)">
				<stop  offset="0" style="stop-color:#F7F8A6"/>
				<stop  offset="0.073" style="stop-color:#F7CA33"/>
				<stop  offset="0.0965" style="stop-color:#F7CD3B"/>
				<stop  offset="0.1335" style="stop-color:#F7D751"/>
				<stop  offset="0.1793" style="stop-color:#F7E676"/>
				<stop  offset="0.2247" style="stop-color:#F7F8A6"/>
				<stop  offset="0.3202" style="stop-color:#F6D868"/>
				<stop  offset="0.4045" style="stop-color:#CFAE41"/>
				<stop  offset="0.4647" style="stop-color:#D8B43E"/>
				<stop  offset="0.5573" style="stop-color:#F2C635"/>
				<stop  offset="0.573" style="stop-color:#F7CA33"/>
				<stop  offset="0.9157" style="stop-color:#DEB430"/>
				<stop  offset="1" style="stop-color:#F7CA33"/>
			</linearGradient>
			<polyline fill="none" stroke="url(#SVGID_2_)" stroke-width="0.1992" stroke-miterlimit="10" points="51.467,25.916 
				47.245,4.712 46.839,7.92 			"/>
		</g>
		
			<linearGradient id="SVGID_3_" gradientUnits="userSpaceOnUse" x1="-25.8267" y1="-659.1753" x2="-25.8267" y2="-659.1753" gradientTransform="matrix(1 0 0 -1 75.6597 -633.4004)">
			<stop  offset="0" style="stop-color:#F7F8A6"/>
			<stop  offset="0.073" style="stop-color:#F7CA33"/>
			<stop  offset="0.0965" style="stop-color:#F7CD3B"/>
			<stop  offset="0.1335" style="stop-color:#F7D751"/>
			<stop  offset="0.1793" style="stop-color:#F7E676"/>
			<stop  offset="0.2247" style="stop-color:#F7F8A6"/>
			<stop  offset="0.3202" style="stop-color:#F6D868"/>
			<stop  offset="0.4045" style="stop-color:#CFAE41"/>
			<stop  offset="0.4647" style="stop-color:#D8B43E"/>
			<stop  offset="0.5573" style="stop-color:#F2C635"/>
			<stop  offset="0.573" style="stop-color:#F7CA33"/>
			<stop  offset="0.9157" style="stop-color:#DEB430"/>
			<stop  offset="1" style="stop-color:#F7CA33"/>
		</linearGradient>
		<path fill="url(#SVGID_3_)" d="M49.833,25.775"/>
		
			<linearGradient id="SVGID_4_" gradientUnits="userSpaceOnUse" x1="-25.5933" y1="-660.4478" x2="-25.5933" y2="-660.4478" gradientTransform="matrix(1 0 0 -1 75.6597 -633.4004)">
			<stop  offset="0" style="stop-color:#F7F8A6"/>
			<stop  offset="0.073" style="stop-color:#F7CA33"/>
			<stop  offset="0.0965" style="stop-color:#F7CD3B"/>
			<stop  offset="0.1335" style="stop-color:#F7D751"/>
			<stop  offset="0.1793" style="stop-color:#F7E676"/>
			<stop  offset="0.2247" style="stop-color:#F7F8A6"/>
			<stop  offset="0.3202" style="stop-color:#F6D868"/>
			<stop  offset="0.4045" style="stop-color:#CFAE41"/>
			<stop  offset="0.4647" style="stop-color:#D8B43E"/>
			<stop  offset="0.5573" style="stop-color:#F2C635"/>
			<stop  offset="0.573" style="stop-color:#F7CA33"/>
			<stop  offset="0.9157" style="stop-color:#DEB430"/>
			<stop  offset="1" style="stop-color:#F7CA33"/>
		</linearGradient>
		<path fill="url(#SVGID_4_)" d="M50.066,27.047"/>
		
			<linearGradient id="SVGID_5_" gradientUnits="userSpaceOnUse" x1="-32.3638" y1="-649.8994" x2="-25.5093" y2="-649.8994" gradientTransform="matrix(1 0 0 -1 75.6597 -633.4004)">
			<stop  offset="0" style="stop-color:#F7F8A6"/>
			<stop  offset="0.073" style="stop-color:#F7CA33"/>
			<stop  offset="0.0965" style="stop-color:#F7CD3B"/>
			<stop  offset="0.1335" style="stop-color:#F7D751"/>
			<stop  offset="0.1793" style="stop-color:#F7E676"/>
			<stop  offset="0.2247" style="stop-color:#F7F8A6"/>
			<stop  offset="0.3202" style="stop-color:#F6D868"/>
			<stop  offset="0.4045" style="stop-color:#CFAE41"/>
			<stop  offset="0.4647" style="stop-color:#D8B43E"/>
			<stop  offset="0.5573" style="stop-color:#F2C635"/>
			<stop  offset="0.573" style="stop-color:#F7CA33"/>
			<stop  offset="0.9157" style="stop-color:#DEB430"/>
			<stop  offset="1" style="stop-color:#F7CA33"/>
		</linearGradient>
		<polygon fill="url(#SVGID_5_)" points="50.15,25.775 46.894,7.207 43.296,25.791 		"/>
		
			<linearGradient id="SVGID_6_" gradientUnits="userSpaceOnUse" x1="-47.9507" y1="-671.5684" x2="-29.397" y2="-671.5684" gradientTransform="matrix(1 0 0 -1 75.6597 -633.4004)">
			<stop  offset="0" style="stop-color:#F7F8A6"/>
			<stop  offset="0.073" style="stop-color:#F7CA33"/>
			<stop  offset="0.0965" style="stop-color:#F7CD3B"/>
			<stop  offset="0.1335" style="stop-color:#F7D751"/>
			<stop  offset="0.1793" style="stop-color:#F7E676"/>
			<stop  offset="0.2247" style="stop-color:#F7F8A6"/>
			<stop  offset="0.3202" style="stop-color:#F6D868"/>
			<stop  offset="0.4045" style="stop-color:#CFAE41"/>
			<stop  offset="0.4647" style="stop-color:#D8B43E"/>
			<stop  offset="0.5573" style="stop-color:#F2C635"/>
			<stop  offset="0.573" style="stop-color:#F7CA33"/>
			<stop  offset="0.9157" style="stop-color:#DEB430"/>
			<stop  offset="1" style="stop-color:#F7CA33"/>
		</linearGradient>
		<polygon fill="url(#SVGID_6_)" points="46.263,6.479 27.709,69.857 33.812,69.857 		"/>
		
			<linearGradient id="SVGID_7_" gradientUnits="userSpaceOnUse" x1="-44.8267" y1="-657.7139" x2="-32.6021" y2="-657.7139" gradientTransform="matrix(1 0 0 -1 75.6597 -633.4004)">
			<stop  offset="0" style="stop-color:#F7F8A6"/>
			<stop  offset="0.073" style="stop-color:#F7CA33"/>
			<stop  offset="0.0965" style="stop-color:#F7CD3B"/>
			<stop  offset="0.1335" style="stop-color:#F7D751"/>
			<stop  offset="0.1793" style="stop-color:#F7E676"/>
			<stop  offset="0.2247" style="stop-color:#F7F8A6"/>
			<stop  offset="0.3202" style="stop-color:#F6D868"/>
			<stop  offset="0.4045" style="stop-color:#CFAE41"/>
			<stop  offset="0.4647" style="stop-color:#D8B43E"/>
			<stop  offset="0.5573" style="stop-color:#F2C635"/>
			<stop  offset="0.573" style="stop-color:#F7CA33"/>
			<stop  offset="0.9157" style="stop-color:#DEB430"/>
			<stop  offset="1" style="stop-color:#F7CA33"/>
		</linearGradient>
		<path fill="url(#SVGID_7_)" d="M35.216,26.561c-1.144,0.12-1.622,0.176-2.698,0.487l-1.685,5.717
			c2.251-1.087,4.548-1.639,7.823-1.867l1.443-4.642c-2.164,0-3.761-1.858-3.761-3.949c0-2.09,1.756-3.782,3.919-3.782
			c0.542,0,1.533,0.104,2.003,0.295l0.797-2.459c-0.761-0.321-1.916-0.499-2.795-0.499c-3.517,0-6.527,2.843-6.527,6.35
			c0,1.569,0.89,3.172,1.838,4.281L35.216,26.561z"/>
		
			<linearGradient id="SVGID_8_" gradientUnits="userSpaceOnUse" x1="-57.8433" y1="-679.1377" x2="-43.5688" y2="-679.1377" gradientTransform="matrix(1 0 0 -1 75.6597 -633.4004)">
			<stop  offset="0" style="stop-color:#F7F8A6"/>
			<stop  offset="0.073" style="stop-color:#F7CA33"/>
			<stop  offset="0.0965" style="stop-color:#F7CD3B"/>
			<stop  offset="0.1335" style="stop-color:#F7D751"/>
			<stop  offset="0.1793" style="stop-color:#F7E676"/>
			<stop  offset="0.2247" style="stop-color:#F7F8A6"/>
			<stop  offset="0.3202" style="stop-color:#F6D868"/>
			<stop  offset="0.4045" style="stop-color:#CFAE41"/>
			<stop  offset="0.4647" style="stop-color:#D8B43E"/>
			<stop  offset="0.5573" style="stop-color:#F2C635"/>
			<stop  offset="0.573" style="stop-color:#F7CA33"/>
			<stop  offset="0.9157" style="stop-color:#DEB430"/>
			<stop  offset="1" style="stop-color:#F7CA33"/>
		</linearGradient>
		<path fill="url(#SVGID_8_)" d="M28.83,64.38c-6.526-3.293-11.014-10.146-11.014-18.071c0-9.007,6.274-16.631,14.274-19.214
			l-1.839,6.021c-4.653,2.738-7.749,7.605-7.749,13.153c0,5.555,3.103,10.425,7.766,13.161L28.83,64.38z"/>
		
			<linearGradient id="SVGID_9_" gradientUnits="userSpaceOnUse" x1="-33.2935" y1="-662.3696" x2="-24.3823" y2="-662.3696" gradientTransform="matrix(1 0 0 -1 75.6597 -633.4004)">
			<stop  offset="0" style="stop-color:#F7F8A6"/>
			<stop  offset="0.073" style="stop-color:#F7CA33"/>
			<stop  offset="0.0965" style="stop-color:#F7CD3B"/>
			<stop  offset="0.1335" style="stop-color:#F7D751"/>
			<stop  offset="0.1793" style="stop-color:#F7E676"/>
			<stop  offset="0.2247" style="stop-color:#F7F8A6"/>
			<stop  offset="0.3202" style="stop-color:#F6D868"/>
			<stop  offset="0.4045" style="stop-color:#CFAE41"/>
			<stop  offset="0.4647" style="stop-color:#D8B43E"/>
			<stop  offset="0.5573" style="stop-color:#F2C635"/>
			<stop  offset="0.573" style="stop-color:#F7CA33"/>
			<stop  offset="0.9157" style="stop-color:#DEB430"/>
			<stop  offset="1" style="stop-color:#F7CA33"/>
		</linearGradient>
		<polyline fill="url(#SVGID_9_)" points="42.991,27.07 42.366,30.868 51.277,30.866 50.524,27.149 		"/>
	</g>
	<g>
		
			<linearGradient id="SVGID_10_" gradientUnits="userSpaceOnUse" x1="-22.895" y1="-662.3794" x2="-21.8599" y2="-662.3794" gradientTransform="matrix(1 0 0 -1 75.6597 -633.4004)">
			<stop  offset="0" style="stop-color:#F7F8A6"/>
			<stop  offset="0.073" style="stop-color:#F7CA33"/>
			<stop  offset="0.0965" style="stop-color:#F7CD3B"/>
			<stop  offset="0.1335" style="stop-color:#F7D751"/>
			<stop  offset="0.1793" style="stop-color:#F7E676"/>
			<stop  offset="0.2247" style="stop-color:#F7F8A6"/>
			<stop  offset="0.3202" style="stop-color:#F6D868"/>
			<stop  offset="0.4045" style="stop-color:#CFAE41"/>
			<stop  offset="0.4647" style="stop-color:#D8B43E"/>
			<stop  offset="0.5573" style="stop-color:#F2C635"/>
			<stop  offset="0.573" style="stop-color:#F7CA33"/>
			<stop  offset="0.9157" style="stop-color:#DEB430"/>
			<stop  offset="1" style="stop-color:#F7CA33"/>
		</linearGradient>
		<polyline fill="url(#SVGID_10_)" stroke="#FCCC12" stroke-width="0.1992" stroke-miterlimit="10" points="52.776,27.114 
			52.765,30.844 53.8,30.844 53.8,27.114 		"/>
		<g>
			
				<linearGradient id="SVGID_11_" gradientUnits="userSpaceOnUse" x1="-22.895" y1="-658.0801" x2="-20.9761" y2="-658.0801" gradientTransform="matrix(1 0 0 -1 75.6597 -633.4004)">
				<stop  offset="0" style="stop-color:#F7F8A6"/>
				<stop  offset="0.073" style="stop-color:#F7CA33"/>
				<stop  offset="0.0965" style="stop-color:#F7CD3B"/>
				<stop  offset="0.1335" style="stop-color:#F7D751"/>
				<stop  offset="0.1793" style="stop-color:#F7E676"/>
				<stop  offset="0.2247" style="stop-color:#F7F8A6"/>
				<stop  offset="0.3202" style="stop-color:#F6D868"/>
				<stop  offset="0.4045" style="stop-color:#CFAE41"/>
				<stop  offset="0.4647" style="stop-color:#D8B43E"/>
				<stop  offset="0.5573" style="stop-color:#F2C635"/>
				<stop  offset="0.573" style="stop-color:#F7CA33"/>
				<stop  offset="0.9157" style="stop-color:#DEB430"/>
				<stop  offset="1" style="stop-color:#F7CA33"/>
			</linearGradient>
			<path fill="url(#SVGID_11_)" stroke="#FCCC12" stroke-width="0.1992" stroke-miterlimit="10" d="M53.822,25.913
				c0,0-0.097-0.717,0.11-1.052c0.17-0.272,0.751-0.04,0.751-0.04v-1.266c0,0-0.458-0.174-0.873-0.08
				c-0.433,0.099-0.795,0.517-0.935,0.969c-0.111,0.358-0.111,1.448-0.111,1.448"/>
			
				<linearGradient id="SVGID_12_" gradientUnits="userSpaceOnUse" x1="-20.6294" y1="-662.3604" x2="-19.5962" y2="-662.3604" gradientTransform="matrix(1 0 0 -1 75.6597 -633.4004)">
				<stop  offset="0" style="stop-color:#F7F8A6"/>
				<stop  offset="0.073" style="stop-color:#F7CA33"/>
				<stop  offset="0.0965" style="stop-color:#F7CD3B"/>
				<stop  offset="0.1335" style="stop-color:#F7D751"/>
				<stop  offset="0.1793" style="stop-color:#F7E676"/>
				<stop  offset="0.2247" style="stop-color:#F7F8A6"/>
				<stop  offset="0.3202" style="stop-color:#F6D868"/>
				<stop  offset="0.4045" style="stop-color:#CFAE41"/>
				<stop  offset="0.4647" style="stop-color:#D8B43E"/>
				<stop  offset="0.5573" style="stop-color:#F2C635"/>
				<stop  offset="0.573" style="stop-color:#F7CA33"/>
				<stop  offset="0.9157" style="stop-color:#DEB430"/>
				<stop  offset="1" style="stop-color:#F7CA33"/>
			</linearGradient>
			
				<rect x="55.03" y="27.075" fill="url(#SVGID_12_)" stroke="#FCCC12" stroke-width="0.1992" stroke-miterlimit="10" width="1.033" height="3.769"/>
			
				<linearGradient id="SVGID_13_" gradientUnits="userSpaceOnUse" x1="-17.6792" y1="-661.7051" x2="-15.5771" y2="-661.7051" gradientTransform="matrix(1 0 0 -1 75.6597 -633.4004)">
				<stop  offset="0" style="stop-color:#F7F8A6"/>
				<stop  offset="0.073" style="stop-color:#F7CA33"/>
				<stop  offset="0.0965" style="stop-color:#F7CD3B"/>
				<stop  offset="0.1335" style="stop-color:#F7D751"/>
				<stop  offset="0.1793" style="stop-color:#F7E676"/>
				<stop  offset="0.2247" style="stop-color:#F7F8A6"/>
				<stop  offset="0.3202" style="stop-color:#F6D868"/>
				<stop  offset="0.4045" style="stop-color:#CFAE41"/>
				<stop  offset="0.4647" style="stop-color:#D8B43E"/>
				<stop  offset="0.5573" style="stop-color:#F2C635"/>
				<stop  offset="0.573" style="stop-color:#F7CA33"/>
				<stop  offset="0.9157" style="stop-color:#DEB430"/>
				<stop  offset="1" style="stop-color:#F7CA33"/>
			</linearGradient>
			<path fill="url(#SVGID_13_)" stroke="#FCCC12" stroke-width="0.1992" stroke-miterlimit="10" d="M57.98,26.678
				c0,0,0.176-0.711,0.874-0.91c0.282-0.079,1.099,0.198,1.182,0.91c0.084,0.726,0.028,4.176,0.028,4.176l-1.053-0.01
				c0,0-0.001-2.477-0.019-3.019c-0.028-1.092-0.637-0.826-0.761-0.677c-0.203,0.244-0.252,0.592-0.252,0.592V26.678L57.98,26.678z"
				/>
			
				<linearGradient id="SVGID_14_" gradientUnits="userSpaceOnUse" x1="-18.729" y1="-661.8057" x2="-17.6948" y2="-661.8057" gradientTransform="matrix(1 0 0 -1 75.6597 -633.4004)">
				<stop  offset="0" style="stop-color:#F7F8A6"/>
				<stop  offset="0.073" style="stop-color:#F7CA33"/>
				<stop  offset="0.0965" style="stop-color:#F7CD3B"/>
				<stop  offset="0.1335" style="stop-color:#F7D751"/>
				<stop  offset="0.1793" style="stop-color:#F7E676"/>
				<stop  offset="0.2247" style="stop-color:#F7F8A6"/>
				<stop  offset="0.3202" style="stop-color:#F6D868"/>
				<stop  offset="0.4045" style="stop-color:#CFAE41"/>
				<stop  offset="0.4647" style="stop-color:#D8B43E"/>
				<stop  offset="0.5573" style="stop-color:#F2C635"/>
				<stop  offset="0.573" style="stop-color:#F7CA33"/>
				<stop  offset="0.9157" style="stop-color:#DEB430"/>
				<stop  offset="1" style="stop-color:#F7CA33"/>
			</linearGradient>
			
				<rect x="56.931" y="25.966" fill="url(#SVGID_14_)" stroke="#FCCC12" stroke-width="0.1992" stroke-miterlimit="10" width="1.034" height="4.878"/>
			
				<linearGradient id="SVGID_15_" gradientUnits="userSpaceOnUse" x1="-15.5776" y1="-661.7051" x2="-13.4746" y2="-661.7051" gradientTransform="matrix(1 0 0 -1 75.6597 -633.4004)">
				<stop  offset="0" style="stop-color:#F7F8A6"/>
				<stop  offset="0.073" style="stop-color:#F7CA33"/>
				<stop  offset="0.0965" style="stop-color:#F7CD3B"/>
				<stop  offset="0.1335" style="stop-color:#F7D751"/>
				<stop  offset="0.1793" style="stop-color:#F7E676"/>
				<stop  offset="0.2247" style="stop-color:#F7F8A6"/>
				<stop  offset="0.3202" style="stop-color:#F6D868"/>
				<stop  offset="0.4045" style="stop-color:#CFAE41"/>
				<stop  offset="0.4647" style="stop-color:#D8B43E"/>
				<stop  offset="0.5573" style="stop-color:#F2C635"/>
				<stop  offset="0.573" style="stop-color:#F7CA33"/>
				<stop  offset="0.9157" style="stop-color:#DEB430"/>
				<stop  offset="1" style="stop-color:#F7CA33"/>
			</linearGradient>
			<path fill="url(#SVGID_15_)" stroke="#FCCC12" stroke-width="0.1992" stroke-miterlimit="10" d="M60.083,26.678
				c0,0,0.175-0.711,0.874-0.91c0.281-0.079,1.098,0.198,1.181,0.91c0.085,0.726,0.029,4.176,0.029,4.176l-1.054-0.01
				c0,0-0.003-2.477-0.019-3.019c-0.029-1.092-0.636-0.826-0.761-0.677c-0.203,0.244-0.252,0.592-0.252,0.592L60.083,26.678
				L60.083,26.678z"/>
			
				<linearGradient id="SVGID_16_" gradientUnits="userSpaceOnUse" x1="-20.6294" y1="-658.4902" x2="-19.4478" y2="-658.4902" gradientTransform="matrix(1 0 0 -1 75.6597 -633.4004)">
				<stop  offset="0" style="stop-color:#F7F8A6"/>
				<stop  offset="0.073" style="stop-color:#F7CA33"/>
				<stop  offset="0.0965" style="stop-color:#F7CD3B"/>
				<stop  offset="0.1335" style="stop-color:#F7D751"/>
				<stop  offset="0.1793" style="stop-color:#F7E676"/>
				<stop  offset="0.2247" style="stop-color:#F7F8A6"/>
				<stop  offset="0.3202" style="stop-color:#F6D868"/>
				<stop  offset="0.4045" style="stop-color:#CFAE41"/>
				<stop  offset="0.4647" style="stop-color:#D8B43E"/>
				<stop  offset="0.5573" style="stop-color:#F2C635"/>
				<stop  offset="0.573" style="stop-color:#F7CA33"/>
				<stop  offset="0.9157" style="stop-color:#DEB430"/>
				<stop  offset="1" style="stop-color:#F7CA33"/>
			</linearGradient>
			
				<ellipse fill="url(#SVGID_16_)" stroke="#FCCC12" stroke-width="0.1992" stroke-miterlimit="10" cx="55.62" cy="25.09" rx="0.592" ry="0.811"/>
		</g>
	</g>
	<g>
		<g enable-background="new    ">
			<path fill="#F8F853" stroke="#FCCC12" stroke-width="0.1992" stroke-miterlimit="10" d="M35.998,62.152
				c-0.114-0.119-0.172-0.18-0.286-0.297c0.543-0.206,1.042-0.284,1.475-0.301c0.289-0.012,0.514,0.006,0.665,0.045
				c0.223,0.059,0.412,0.162,0.57,0.311c0.226,0.212,0.736,1.262,0.808,1.276c0.153,0.031,1.158-0.748,1.657-0.846
				c0.498-0.096,0.917-0.121,1.267-0.099c0.179,0.013,0.327,0.041,0.446,0.085c0.118,0.043,0.188,0.093,0.207,0.155
				c0.021,0.07-0.034,0.13-0.172,0.176c-0.098,0.033-0.387,0.058-0.878,0.035c-0.402-0.019-0.753-0.002-1.038,0.087
				c-0.458,0.141-0.885,0.396-1.267,0.834c0.354,0.66,0.533,0.993,0.885,1.611c0.382,0.675,0.73,1.104,1.053,1.337
				c0.322,0.234,0.683,0.354,1.083,0.387c0.229,0.016,0.47-0.015,0.72-0.083c0.356-0.101,0.584-0.263,0.689-0.489
				c0.068-0.148,0.216-0.257,0.439-0.322c0.106-0.032,0.205-0.038,0.297-0.024c0.09,0.016,0.145,0.049,0.162,0.104
				c0.034,0.112-0.078,0.251-0.349,0.434c-0.27,0.179-0.646,0.346-1.131,0.491c-0.536,0.158-1.076,0.238-1.616,0.204
				c-0.54-0.035-1.041-0.216-1.501-0.604c-0.46-0.392-1.408-2.292-1.487-2.304c-0.023-0.005-0.252,0.26-0.464,0.496
				c-0.603,0.672-1.095,1.144-1.457,1.336c-0.364,0.192-0.727,0.272-1.084,0.236c-0.25-0.026-0.463-0.103-0.642-0.232
				c-0.179-0.131-0.277-0.277-0.299-0.431c-0.018-0.126,0.018-0.229,0.109-0.307c0.092-0.077,0.208-0.104,0.348-0.082
				c0.145,0.021,0.31,0.12,0.483,0.291c0.151,0.146,0.288,0.228,0.407,0.238c0.08,0.008,0.169-0.003,0.258-0.035
				c0.132-0.046,0.305-0.167,0.515-0.345c0.298-0.253,0.527-0.472,0.68-0.653c0.354-0.428,0.529-0.634,0.888-1.008
				c-0.227-0.45-0.34-0.682-0.562-1.123c-0.145-0.299-0.272-0.495-0.382-0.593c-0.11-0.098-0.225-0.16-0.34-0.188
				c-0.088-0.02-0.206-0.02-0.351-0.004C36.495,61.986,36.224,62.052,35.998,62.152z"/>
			<path fill="#F8F853" stroke="#FCCC12" stroke-width="0.1992" stroke-miterlimit="10" d="M42.791,63.309
				c-0.143-0.058-0.216-0.088-0.359-0.15c0.423-0.282,0.849-0.475,1.265-0.64c0.417-0.163,0.762-0.305,1.067-0.396
				c0.115-0.033,0.21-0.049,0.287-0.045c0.077,0.005,0.124,0.035,0.144,0.085c0.022,0.062,0.031,0.13,0.026,0.207
				c-0.006,0.077-0.114,0.571-0.114,0.571c0.03,0.017,0.995-0.957,1.215-1.131c0.369-0.295,0.72-0.523,1.057-0.686
				c0.221-0.106,0.427-0.153,0.624-0.141c0.196,0.014,0.34,0.109,0.434,0.299c0.235,0.473,0.14,1.143-0.356,1.988
				c-0.495,0.846-1.213,1.494-2.121,1.81c-0.357,0.125-0.732,0.19-1.129,0.207c-0.119,0.548-0.181,0.826-0.32,1.329
				c-0.022,0.077-0.027,0.133-0.015,0.173c0.025,0.075,0.119,0.101,0.28,0.081c0.248-0.024,0.746-0.124,1.472-0.334
				c-0.017,0.07-0.025,0.104-0.043,0.173c-0.847,0.245-1.537,0.44-2.047,0.603c-0.525,0.167-1.214,0.402-2.079,0.678
				c0.028-0.069,0.043-0.105,0.071-0.179c0.432-0.141,0.733-0.276,0.908-0.405c0.173-0.126,0.291-0.299,0.351-0.529
				c0.305-1.198,0.425-1.967,0.651-3.186c0.107-0.568,0.144-0.849,0.126-0.901c-0.019-0.059-0.089-0.08-0.214-0.06
				C43.75,62.765,43.372,62.951,42.791,63.309z M44.891,64.842c0.457,0.077,0.888,0.039,1.294-0.114
				c0.589-0.22,1.016-0.67,1.272-1.29c0.256-0.621,0.289-1.122,0.127-1.49c-0.052-0.119-0.148-0.18-0.288-0.188
				s-0.305,0.031-0.497,0.115c-0.216,0.094-0.437,0.242-0.672,0.45c-0.363,0.322-0.641,0.6-0.814,0.84
				c-0.125,0.172-0.214,0.43-0.268,0.776C44.987,64.3,44.956,64.482,44.891,64.842z"/>
			<path fill="#F8F853" stroke="#FCCC12" stroke-width="0.1992" stroke-miterlimit="10" d="M52.746,59.633
				c0.104-0.027,0.158-0.043,0.265-0.072c-0.646,1.205-1.401,2.158-2.157,2.738c-0.306,0.236-0.571,0.365-0.783,0.39
				c-0.215,0.025-0.375-0.068-0.479-0.277c-0.214-0.421-0.134-1.024,0.179-1.768c0.353-0.838,0.899-1.506,1.645-2.122
				c0.261-0.217,0.475-0.359,0.649-0.425c0.176-0.067,0.299-0.055,0.373,0.036c0.077,0.097,0.076,0.266-0.014,0.508
				c-0.088,0.242-0.305,0.605-0.676,1.088c-0.186,0.24-1.128,0.939-1.298,1.473c-0.022,0.07,0.054,0.235,0.105,0.324
				c0.075,0.129,0.175,0.184,0.299,0.162s0.278-0.105,0.457-0.248c0.17-0.137,0.343-0.309,0.517-0.516
				C52.06,60.647,52.376,60.214,52.746,59.633z M50.423,60.975c0.084,0.023,0.976-1.127,1.188-1.515
				c0.145-0.266,0.181-0.443,0.114-0.534c-0.05-0.067-0.131-0.082-0.244-0.054c-0.112,0.029-0.237,0.098-0.373,0.206
				c-0.14,0.11-0.261,0.24-0.365,0.387c-0.142,0.198-0.238,0.404-0.283,0.627C50.393,60.412,50.423,60.975,50.423,60.975z"/>
			<path fill="#F8F853" stroke="#FCCC12" stroke-width="0.1992" stroke-miterlimit="10" d="M55.123,58.24
				c-0.301,0.348-0.457,0.517-0.777,0.847c-0.048-0.388-0.074-0.579-0.132-0.962c-0.073-0.471-0.159-0.9-0.266-1.286
				c-0.026-0.093-0.049-0.149-0.063-0.165c-0.03-0.032-0.08-0.01-0.149,0.07c-0.048,0.055-0.109,0.152-0.185,0.293
				c-0.076,0.141-0.196,0.412-0.376,0.81c-0.089,0.034-0.134,0.05-0.224,0.082c0.206-0.477,0.429-0.923,0.667-1.337
				c0.237-0.417,0.425-0.729,0.576-0.922c0.054-0.068,0.102-0.115,0.143-0.146c0.041-0.028,0.069-0.035,0.087-0.018
				c0.018,0.02,0.043,0.089,0.078,0.215c0.064,0.245,0.095,0.365,0.154,0.609c0.103-0.604,0.254-1.234,0.44-1.894
				c0.091-0.315,0.185-0.558,0.288-0.729c0.074-0.124,0.149-0.22,0.225-0.28c0.075-0.063,0.132-0.078,0.168-0.047
				c0.036,0.032,0.043,0.102,0.021,0.209c-0.021,0.104-0.108,0.342-0.276,0.698c-0.159,0.339-0.283,0.623-0.366,0.856
				c-0.084,0.232-0.159,0.504-0.229,0.819c-0.07,0.314-0.11,0.548-0.109,0.706c0,0.158,0.058,0.459,0.159,0.9
				C55.038,57.84,55.067,57.972,55.123,58.24z"/>
			<path fill="#F8F853" stroke="#FCCC12" stroke-width="0.1992" stroke-miterlimit="10" d="M56.034,51.921
				c0.148-0.461,0.217-0.694,0.338-1.168c0.161,0.372,0.238,0.561,0.39,0.938c0.247-0.572,0.36-0.867,0.563-1.467
				c0.045,0.088,0.068,0.131,0.113,0.221c-0.207,0.602-0.321,0.898-0.574,1.473c0.178,0.46,0.265,0.691,0.431,1.16
				c0.119,0.363,0.216,0.581,0.298,0.648c0.038,0.031,0.078,0.024,0.121-0.017c0.043-0.042,0.088-0.112,0.133-0.208
				c0.069-0.146,0.149-0.396,0.23-0.749c0.104-0.462,0.18-0.915,0.226-1.356c0.081-0.085,0.12-0.13,0.2-0.219
				c-0.139,1.277-0.33,2.1-0.445,2.494c-0.116,0.398-0.234,0.7-0.346,0.911c-0.092,0.173-0.186,0.294-0.277,0.36
				s-0.18,0.061-0.263-0.014c-0.1-0.086-0.201-0.305-0.31-0.65c-0.177-0.557-0.27-0.831-0.465-1.379
				c-0.22,0.438-0.334,0.647-0.579,1.062c-0.03-0.099-0.047-0.147-0.078-0.245c0.241-0.413,0.356-0.623,0.572-1.057
				C56.204,52.361,56.147,52.215,56.034,51.921z"/>
		</g>
	</g>
</g>
</svg>
