<?xml version="1.0" encoding="utf-8"?>
<!-- Generator: Adobe Illustrator 16.0.0, SVG Export Plug-In . SVG Version: 6.00 Build 0)  -->
<!DOCTYPE svg PUBLIC "-//W3C//DTD SVG 1.1//EN" "http://www.w3.org/Graphics/SVG/1.1/DTD/svg11.dtd">
<svg version="1.1" id="Facebook_1_" xmlns="http://www.w3.org/2000/svg" xmlns:xlink="http://www.w3.org/1999/xlink" x="0px"
	 y="0px" width="120px" height="24px" viewBox="0 0 120 24" enable-background="new 0 0 120 24" xml:space="preserve">
<path fill="#2D2D2D" d="M19.016,37H4.984C2.231,37,0,39.23,0,41.984v7.015c0,2.752,2.231,4.983,4.984,4.983h14.031
	c2.753,0,4.984-2.231,4.984-4.983v-7.015C24,39.23,21.769,37,19.016,37z M15.645,45.833l-6.562,3.129
	c-0.175,0.084-0.378-0.043-0.378-0.236V42.27c0-0.197,0.207-0.323,0.384-0.235l6.562,3.326
	C15.845,45.458,15.842,45.738,15.645,45.833z"/>
<path fill="#C51A1C" d="M43.016,37H28.984C26.23,37,24,39.23,24,41.984v7.015c0,2.752,2.23,4.983,4.984,4.983h14.031
	c2.752,0,4.983-2.231,4.983-4.983v-7.015C48,39.23,45.77,37,43.016,37z M39.645,45.833l-6.562,3.129
	c-0.175,0.084-0.378-0.043-0.378-0.236V42.27c0-0.197,0.207-0.323,0.384-0.235l6.562,3.326
	C39.846,45.458,39.842,45.738,39.645,45.833z"/>
<path opacity="0.35" fill="#2D2D2D" enable-background="new    " d="M67.016,37H52.984C50.23,37,48,39.23,48,41.984v7.015
	c0,2.752,2.23,4.983,4.984,4.983h14.031c2.752,0,4.982-2.231,4.982-4.983v-7.015C72,39.23,69.77,37,67.016,37z M63.645,45.833
	l-6.562,3.129c-0.175,0.084-0.378-0.043-0.378-0.236V42.27c0-0.197,0.207-0.323,0.384-0.235l6.562,3.326
	C63.846,45.458,63.841,45.738,63.645,45.833z"/>
<path fill="#C51A1C" d="M91.016,37H76.984C74.23,37,72,39.23,72,41.984v7.015c0,2.752,2.23,4.983,4.984,4.983h14.031
	c2.752,0,4.982-2.231,4.982-4.983v-7.015C96,39.23,93.77,37,91.016,37z M87.645,45.833l-6.562,3.129
	c-0.176,0.084-0.379-0.043-0.379-0.236V42.27c0-0.197,0.207-0.323,0.385-0.235l6.562,3.326
	C87.846,45.458,87.841,45.738,87.645,45.833z"/>
<path fill="#C51A1C" d="M115.016,37h-14.031C98.23,37,96,39.23,96,41.984v7.015c0,2.752,2.23,4.983,4.984,4.983h14.031
	c2.752,0,4.982-2.231,4.982-4.983v-7.015C120,39.23,117.77,37,115.016,37z M111.645,45.833l-6.562,3.129
	c-0.176,0.084-0.379-0.043-0.379-0.236V42.27c0-0.197,0.207-0.323,0.385-0.235l6.562,3.326
	C111.846,45.458,111.841,45.738,111.645,45.833z"/>
<path fill-rule="evenodd" clip-rule="evenodd" fill="#1E1E1E" d="M12.327,22c-0.039,0-0.078,0-0.117,0
	c-0.113-0.018-0.227-0.041-0.34-0.055c-0.604-0.076-1.216-0.113-1.812-0.234c-1.099-0.223-2.122-0.654-3.067-1.262
	c-0.17-0.109-0.319-0.119-0.508-0.057c-1.093,0.357-2.189,0.705-3.285,1.055c-0.065,0.021-0.131,0.035-0.223,0.061
	c0.028-0.092,0.045-0.154,0.065-0.215c0.344-1.029,0.677-2.063,1.039-3.086c0.093-0.264,0.056-0.447-0.096-0.674
	c-1.066-1.58-1.637-3.322-1.681-5.232c-0.002-0.088-0.034-0.175-0.052-0.262c0-0.026,0-0.052,0-0.078
	c0.017-0.088,0.043-0.175,0.049-0.264c0.021-0.291,0.017-0.585,0.053-0.875C2.52,9.479,2.91,8.203,3.614,7.043
	c1.889-3.111,4.643-4.801,8.294-4.993c0.088-0.004,0.175-0.033,0.263-0.05c0.052,0,0.104,0,0.156,0
	c0.087,0.017,0.175,0.049,0.262,0.049c0.726,0.002,1.439,0.106,2.135,0.297c2.985,0.821,5.173,2.62,6.532,5.403
	c0.603,1.235,0.919,2.548,0.944,3.928c0.002,0.095,0.032,0.189,0.049,0.283c0,0.026,0,0.052,0,0.078
	c-0.017,0.094-0.042,0.188-0.05,0.284c-0.033,0.388-0.037,0.779-0.096,1.164c-0.244,1.58-0.812,3.037-1.769,4.322
	c-1.929,2.59-4.503,3.994-7.746,4.141C12.501,21.953,12.415,21.982,12.327,22z M8.594,6.552c0-0.003,0-0.007,0-0.011
	C8.444,6.552,8.294,6.554,8.147,6.575C7.578,6.659,7.236,7.057,6.948,7.497C6.377,8.371,6.28,9.324,6.55,10.32
	c0.213,0.79,0.622,1.48,1.09,2.144c0.725,1.024,1.534,1.968,2.482,2.794c1.306,1.137,2.841,1.814,4.496,2.244
	c0.33,0.084,0.68,0.127,1.02,0.123c0.466-0.004,0.901-0.168,1.321-0.371c0.936-0.455,1.33-1.232,1.357-2.234
	c0.006-0.219-0.068-0.391-0.279-0.49c-0.752-0.357-1.499-0.725-2.254-1.072c-0.386-0.18-0.624-0.098-0.879,0.244
	c-0.206,0.275-0.408,0.557-0.622,0.826c-0.259,0.326-0.464,0.379-0.853,0.225c-1.691-0.678-2.94-1.859-3.87-3.404
	C9.455,11.172,9.464,11,9.591,10.84c0.085-0.107,0.18-0.206,0.267-0.311c0.169-0.206,0.342-0.409,0.5-0.622
	c0.14-0.188,0.144-0.397,0.053-0.611c-0.076-0.18-0.147-0.361-0.223-0.541C9.93,8.145,9.67,7.534,9.412,6.924
	C9.299,6.656,9.091,6.545,8.809,6.552C8.737,6.554,8.666,6.552,8.594,6.552z"/>
<g>
	<path fill-rule="evenodd" clip-rule="evenodd" fill="#009245" d="M36.327,22c-0.039,0-0.078,0-0.117,0
		c-0.113-0.02-0.227-0.041-0.34-0.055c-0.604-0.076-1.216-0.113-1.812-0.234c-1.099-0.223-2.123-0.654-3.067-1.262
		c-0.17-0.109-0.319-0.119-0.508-0.059c-1.093,0.359-2.189,0.707-3.285,1.057c-0.065,0.021-0.131,0.035-0.223,0.061
		c0.028-0.092,0.045-0.154,0.065-0.215c0.343-1.029,0.677-2.063,1.039-3.086c0.093-0.264,0.056-0.447-0.096-0.674
		c-1.066-1.58-1.637-3.322-1.681-5.232c-0.002-0.088-0.034-0.175-0.052-0.262c0-0.026,0-0.052,0-0.078
		c0.017-0.088,0.043-0.175,0.049-0.264c0.021-0.291,0.017-0.585,0.053-0.875c0.168-1.343,0.559-2.62,1.263-3.779
		c1.889-3.111,4.643-4.801,8.294-4.993C35.996,2.045,36.083,2.017,36.17,2c0.052,0,0.104,0,0.156,0
		c0.087,0.017,0.175,0.049,0.262,0.049c0.726,0.002,1.439,0.106,2.135,0.297c2.984,0.821,5.172,2.62,6.531,5.403
		c0.603,1.235,0.919,2.548,0.944,3.928c0.002,0.095,0.032,0.189,0.049,0.283c0,0.026,0,0.052,0,0.078
		c-0.017,0.094-0.042,0.188-0.05,0.284c-0.033,0.387-0.037,0.779-0.096,1.162c-0.244,1.58-0.812,3.039-1.769,4.324
		c-1.929,2.59-4.503,3.994-7.745,4.141C36.501,21.953,36.414,21.982,36.327,22z M32.593,6.552c0-0.003,0-0.007,0-0.011
		c-0.149,0.011-0.299,0.012-0.446,0.034c-0.569,0.084-0.911,0.481-1.199,0.922c-0.571,0.874-0.668,1.827-0.398,2.823
		c0.214,0.79,0.622,1.48,1.091,2.144c0.724,1.025,1.533,1.968,2.482,2.794c1.306,1.137,2.841,1.813,4.496,2.242
		c0.33,0.086,0.68,0.127,1.02,0.125c0.466-0.004,0.901-0.168,1.321-0.371c0.936-0.455,1.33-1.232,1.357-2.234
		c0.006-0.219-0.068-0.391-0.279-0.49c-0.752-0.357-1.499-0.725-2.254-1.074c-0.386-0.178-0.624-0.098-0.879,0.246
		c-0.206,0.275-0.407,0.557-0.622,0.826c-0.259,0.326-0.464,0.379-0.853,0.225c-1.691-0.678-2.94-1.859-3.87-3.404
		c-0.106-0.176-0.097-0.348,0.031-0.508c0.085-0.107,0.18-0.206,0.267-0.311c0.169-0.206,0.342-0.409,0.5-0.622
		c0.139-0.188,0.143-0.397,0.052-0.611c-0.076-0.18-0.147-0.361-0.223-0.541c-0.258-0.611-0.517-1.221-0.775-1.832
		c-0.113-0.268-0.321-0.379-0.604-0.372C32.736,6.553,32.665,6.552,32.593,6.552z"/>
</g>
<g>
	<path fill-rule="evenodd" clip-rule="evenodd" fill="#939393" d="M60.17,2c0.052,0,0.104,0,0.156,0
		c0.088,0.017,0.175,0.049,0.263,0.049c0.726,0.002,1.439,0.106,2.135,0.297c2.984,0.821,5.172,2.62,6.531,5.403
		c0.603,1.235,0.919,2.548,0.944,3.927c0.001,0.095,0.032,0.189,0.049,0.284c0,0.026,0,0.052,0,0.078
		c-0.018,0.107-0.038,0.214-0.052,0.322c-0.067,0.573-0.091,1.155-0.209,1.717c-0.413,1.977-1.361,3.672-2.812,5.074
		c-1.454,1.408-3.186,2.295-5.18,2.658c-1.083,0.197-2.172,0.201-3.256,0.037c-1.367-0.205-2.638-0.682-3.804-1.43
		c-0.135-0.086-0.253-0.09-0.401-0.041c-1.112,0.361-2.227,0.715-3.34,1.07c-0.064,0.021-0.13,0.037-0.222,0.063
		c0.03-0.096,0.047-0.158,0.067-0.219c0.346-1.035,0.686-2.074,1.044-3.104c0.083-0.238,0.063-0.412-0.081-0.623
		c-1.083-1.594-1.662-3.354-1.703-5.284c-0.002-0.081-0.034-0.162-0.051-0.242c0-0.026,0-0.052,0-0.078
		c0.017-0.088,0.043-0.175,0.049-0.264c0.021-0.292,0.017-0.585,0.053-0.875c0.168-1.343,0.559-2.62,1.263-3.78
		c1.889-3.11,4.643-4.8,8.294-4.993C59.996,2.045,60.083,2.017,60.17,2z M56.609,6.553c-0.446-0.021-0.839,0.057-1.162,0.355
		c-0.675,0.626-1.004,1.409-1.036,2.321c-0.028,0.819,0.231,1.564,0.619,2.266c0.56,1.013,1.278,1.913,2.054,2.767
		c1.502,1.656,3.365,2.695,5.52,3.242c0.687,0.174,1.363,0.182,2.022-0.104c1.323-0.572,1.594-1.191,1.688-2.369
		c0.018-0.215-0.053-0.395-0.266-0.496c-0.764-0.363-1.521-0.736-2.289-1.09c-0.354-0.164-0.6-0.082-0.836,0.23
		c-0.196,0.258-0.383,0.525-0.583,0.781c-0.326,0.418-0.516,0.461-1.008,0.256c-1.636-0.682-2.846-1.842-3.757-3.337
		c-0.134-0.22-0.122-0.366,0.043-0.572c0.102-0.126,0.22-0.24,0.321-0.367c0.157-0.198,0.331-0.389,0.45-0.609
		c0.066-0.121,0.088-0.316,0.038-0.442c-0.335-0.846-0.692-1.683-1.048-2.521c-0.091-0.213-0.275-0.302-0.5-0.312
		C56.783,6.549,56.685,6.553,56.609,6.553z"/>
	<path fill-rule="evenodd" clip-rule="evenodd" fill="#FFFFFF" d="M56.609,6.553c0.075,0,0.173-0.003,0.271,0.001
		c0.225,0.01,0.41,0.099,0.5,0.312c0.356,0.837,0.713,1.674,1.048,2.521c0.05,0.125,0.028,0.321-0.038,0.442
		c-0.119,0.22-0.292,0.411-0.45,0.609c-0.102,0.127-0.219,0.241-0.321,0.367c-0.166,0.206-0.178,0.352-0.043,0.572
		c0.912,1.495,2.121,2.655,3.757,3.337c0.492,0.205,0.682,0.162,1.008-0.256c0.2-0.256,0.387-0.523,0.583-0.781
		c0.236-0.313,0.482-0.395,0.836-0.23c0.768,0.354,1.525,0.727,2.289,1.09c0.213,0.102,0.283,0.281,0.266,0.496
		c-0.095,1.178-0.365,1.797-1.688,2.369c-0.659,0.285-1.336,0.277-2.022,0.104c-2.154-0.547-4.018-1.586-5.52-3.242
		c-0.775-0.854-1.494-1.754-2.054-2.767c-0.388-0.702-0.647-1.447-0.619-2.266c0.032-0.913,0.361-1.695,1.036-2.321
		C55.77,6.609,56.164,6.531,56.609,6.553z"/>
</g>
<g>
	<path fill-rule="evenodd" clip-rule="evenodd" fill="#39B54A" d="M84.327,22c-0.039,0-0.078,0-0.117,0
		c-0.113-0.02-0.227-0.041-0.341-0.055c-0.604-0.076-1.216-0.113-1.811-0.234c-1.1-0.223-2.123-0.654-3.067-1.262
		c-0.171-0.109-0.319-0.119-0.509-0.059c-1.093,0.359-2.189,0.707-3.285,1.057c-0.064,0.021-0.131,0.035-0.223,0.061
		c0.028-0.092,0.045-0.154,0.064-0.215c0.344-1.029,0.678-2.063,1.039-3.086c0.093-0.264,0.056-0.447-0.097-0.674
		c-1.065-1.58-1.637-3.322-1.681-5.232c-0.002-0.088-0.034-0.175-0.052-0.262c0-0.026,0-0.052,0-0.078
		c0.017-0.088,0.043-0.175,0.049-0.264c0.021-0.291,0.017-0.585,0.053-0.875c0.169-1.343,0.559-2.62,1.264-3.779
		c1.889-3.111,4.643-4.801,8.294-4.993C83.996,2.045,84.083,2.017,84.17,2c0.052,0,0.104,0,0.156,0
		c0.088,0.017,0.175,0.049,0.263,0.049c0.726,0.002,1.439,0.106,2.135,0.297c2.984,0.821,5.172,2.62,6.531,5.403
		c0.603,1.235,0.919,2.548,0.944,3.928c0.001,0.095,0.032,0.189,0.049,0.283c0,0.026,0,0.052,0,0.078
		c-0.017,0.094-0.042,0.188-0.05,0.284c-0.033,0.387-0.036,0.779-0.096,1.162c-0.244,1.58-0.812,3.039-1.769,4.324
		c-1.93,2.59-4.503,3.994-7.745,4.141C84.501,21.953,84.415,21.982,84.327,22z M80.593,6.552c0-0.003,0-0.007-0.001-0.011
		c-0.148,0.011-0.299,0.012-0.445,0.034c-0.569,0.084-0.912,0.481-1.199,0.922c-0.571,0.874-0.668,1.827-0.398,2.823
		c0.214,0.79,0.622,1.48,1.091,2.144c0.724,1.025,1.533,1.968,2.481,2.794c1.307,1.137,2.842,1.813,4.496,2.242
		c0.33,0.086,0.681,0.127,1.021,0.125c0.466-0.004,0.901-0.168,1.321-0.371c0.937-0.455,1.329-1.232,1.357-2.234
		c0.006-0.219-0.067-0.391-0.279-0.49c-0.752-0.357-1.498-0.725-2.254-1.074c-0.387-0.178-0.624-0.098-0.88,0.246
		c-0.206,0.275-0.407,0.557-0.622,0.826c-0.259,0.326-0.464,0.379-0.853,0.225c-1.691-0.678-2.939-1.859-3.869-3.404
		c-0.105-0.176-0.097-0.348,0.03-0.508c0.086-0.107,0.181-0.206,0.268-0.311c0.169-0.206,0.341-0.409,0.5-0.622
		c0.14-0.188,0.144-0.397,0.053-0.611c-0.076-0.18-0.148-0.361-0.224-0.541c-0.258-0.611-0.517-1.221-0.775-1.832
		c-0.113-0.268-0.321-0.379-0.604-0.372C80.737,6.553,80.665,6.552,80.593,6.552z"/>
</g>
<path fill-rule="evenodd" clip-rule="evenodd" fill="#00FF00" d="M108.327,22c-0.039,0-0.078,0-0.117,0
	c-0.113-0.02-0.227-0.041-0.341-0.055c-0.604-0.076-1.216-0.113-1.811-0.234c-1.1-0.223-2.123-0.654-3.067-1.262
	c-0.171-0.109-0.319-0.119-0.509-0.059c-1.093,0.359-2.189,0.707-3.285,1.057c-0.064,0.021-0.131,0.035-0.223,0.061
	c0.028-0.092,0.045-0.154,0.064-0.215c0.344-1.029,0.678-2.063,1.039-3.086c0.093-0.264,0.056-0.447-0.097-0.674
	c-1.065-1.58-1.637-3.322-1.681-5.232c-0.002-0.088-0.034-0.175-0.052-0.262c0-0.026,0-0.052,0-0.078
	c0.017-0.088,0.043-0.175,0.049-0.264c0.021-0.291,0.017-0.585,0.053-0.875c0.169-1.343,0.559-2.62,1.264-3.779
	c1.889-3.111,4.643-4.801,8.294-4.993c0.088-0.004,0.175-0.033,0.263-0.05c0.052,0,0.104,0,0.156,0
	c0.088,0.017,0.175,0.049,0.263,0.049c0.726,0.002,1.439,0.106,2.135,0.297c2.984,0.821,5.172,2.62,6.531,5.403
	c0.603,1.235,0.919,2.548,0.944,3.928c0.001,0.095,0.032,0.189,0.049,0.283c0,0.026,0,0.052,0,0.078
	c-0.017,0.094-0.042,0.188-0.05,0.284c-0.033,0.387-0.036,0.779-0.096,1.162c-0.244,1.58-0.812,3.039-1.769,4.324
	c-1.93,2.59-4.503,3.994-7.745,4.141C108.501,21.953,108.415,21.982,108.327,22z M104.593,6.552c0-0.003,0-0.007-0.001-0.011
	c-0.148,0.011-0.299,0.012-0.445,0.034c-0.569,0.084-0.912,0.481-1.199,0.922c-0.571,0.874-0.668,1.827-0.398,2.823
	c0.214,0.79,0.622,1.48,1.091,2.144c0.724,1.025,1.533,1.968,2.481,2.794c1.307,1.137,2.842,1.813,4.496,2.242
	c0.33,0.086,0.681,0.127,1.021,0.125c0.466-0.004,0.901-0.168,1.321-0.371c0.937-0.455,1.329-1.232,1.357-2.234
	c0.006-0.219-0.067-0.391-0.279-0.49c-0.752-0.357-1.498-0.725-2.254-1.074c-0.387-0.178-0.624-0.098-0.88,0.246
	c-0.206,0.275-0.407,0.557-0.622,0.826c-0.259,0.326-0.464,0.379-0.853,0.225c-1.691-0.678-2.939-1.859-3.869-3.404
	c-0.105-0.176-0.097-0.348,0.03-0.508c0.086-0.107,0.181-0.206,0.268-0.311c0.169-0.206,0.341-0.409,0.5-0.622
	c0.14-0.188,0.144-0.397,0.053-0.611c-0.076-0.18-0.148-0.361-0.224-0.541c-0.258-0.611-0.517-1.221-0.775-1.832
	c-0.113-0.268-0.321-0.379-0.604-0.372C104.737,6.553,104.665,6.552,104.593,6.552z"/>
</svg>
